<svg width="19" height="19" viewBox="0 0 19 19" fill="none" xmlns="http://www.w3.org/2000/svg">
<path fill-rule="evenodd" clip-rule="evenodd" d="M14.4076 0.0422409C13.8195 0.154561 13.3082 0.354287 12.8615 0.646208C12.6749 0.768182 12.1369 1.27761 11.0102 2.39948C9.53891 3.86432 9.41781 3.99446 9.36662 4.16645C9.2542 4.54381 9.41335 4.91579 9.76143 5.08926C9.87903 5.14789 10.0194 5.18721 10.1091 5.18673C10.429 5.18498 10.5143 5.11414 12.1158 3.51968C13.6056 2.03638 13.6445 2.00103 13.9534 1.85099C14.4109 1.62868 14.6691 1.57317 15.1409 1.59564C15.389 1.60745 15.619 1.6425 15.7725 1.69188C16.4776 1.91886 17.0794 2.52606 17.305 3.23819C17.3719 3.44931 17.3873 3.58521 17.3871 3.96224C17.3867 4.47687 17.3487 4.63627 17.1168 5.09472C16.9959 5.33377 16.7661 5.57423 14.2536 8.08942L11.5218 10.8242L11.1691 10.9918C10.7524 11.1898 10.5363 11.2398 10.0985 11.2398C9.53512 11.2398 9.02753 11.0514 8.56849 10.6717C8.4347 10.5611 8.28475 10.4489 8.23527 10.4224C7.85616 10.2195 7.37444 10.3774 7.17954 10.7686C7.07774 10.973 7.06316 11.1374 7.12623 11.3698C7.20541 11.6616 7.91641 12.2354 8.52836 12.5013C9.81841 13.0619 11.3519 12.889 12.4663 12.0571C12.8312 11.7847 18.1417 6.44312 18.3175 6.17151C18.6469 5.66293 18.843 5.16304 18.9469 4.56709C19.1897 3.1744 18.5851 1.6725 17.4308 0.801006C17.0394 0.505483 16.482 0.236249 16.0138 0.116576C15.5492 -0.00220446 14.8175 -0.0360676 14.4076 0.0422409ZM7.79958 6.65165C7.14271 6.77678 6.56046 7.02459 6.08646 7.38082C5.69143 7.67771 0.86611 12.5299 0.6796 12.8179C0.109972 13.6973 -0.107537 14.6724 0.0496825 15.642C0.126566 16.116 0.232777 16.4383 0.449469 16.8551C1.13407 18.1717 2.49291 18.9992 3.97152 19C4.75621 19.0004 5.66567 18.6967 6.30371 18.2211C6.43762 18.1213 7.13425 17.4495 7.85174 16.7283C9.14046 15.4329 9.15679 15.4146 9.19789 15.2183C9.24756 14.9812 9.2062 14.7812 9.06458 14.5735C8.94804 14.4027 8.65046 14.2471 8.44253 14.2482C8.12835 14.25 8.02477 14.3337 6.65858 15.6906C5.27219 17.0675 5.20407 17.1222 4.63533 17.3151C4.32575 17.4201 3.59319 17.4135 3.24319 17.3026C2.53119 17.077 1.9241 16.4751 1.69716 15.7698C1.64779 15.6163 1.61274 15.3863 1.60094 15.1381C1.57852 14.6669 1.63376 14.4091 1.8555 13.9504L2.00808 13.6348L4.51895 11.1234L7.02982 8.61211L7.34537 8.45969C7.75355 8.26252 8.02826 8.19513 8.42382 8.19513C9.01502 8.19513 9.51552 8.37867 9.98528 8.76768C10.3007 9.0289 10.4419 9.09696 10.6671 9.09644C10.9967 9.0957 11.2567 8.92657 11.3964 8.62213C11.4754 8.44977 11.4837 8.28101 11.423 8.07846C11.2874 7.6258 10.2812 6.95066 9.40574 6.72502C8.944 6.60597 8.21414 6.57263 7.79958 6.65165Z" fill="white"/>
</svg>
