<svg width="25" height="25" viewBox="0 0 25 25" fill="none" xmlns="http://www.w3.org/2000/svg">
<path fill-rule="evenodd" clip-rule="evenodd" d="M11.5616 0.0235252C9.70842 0.200957 8.33006 0.592802 6.76956 1.38582C4.921 2.32516 3.26221 3.81056 2.0527 5.60955C1.54059 6.37126 0.914783 7.65715 0.614301 8.56513C0.371764 9.29801 0.179103 10.1321 0.0613556 10.9589C-0.0204518 11.5334 -0.0204518 13.462 0.0613556 14.0366C0.266241 15.4755 0.646917 16.736 1.24167 17.9448C1.91456 19.3124 2.57367 20.2311 3.66181 21.3183C4.73807 22.3935 5.67203 23.0649 6.98961 23.7106C7.90895 24.1612 8.50253 24.3805 9.43454 24.6141C11.8802 25.2269 14.333 25.1094 16.7223 24.2649C17.4466 24.009 18.711 23.3759 19.361 22.9438C21.1457 21.7573 22.6206 20.1191 23.5971 18.2385C24.4807 16.537 24.9228 14.8488 24.9918 12.913C25.066 10.8295 24.6372 8.84656 23.7093 6.98265C23.1 5.75875 22.4218 4.79953 21.4694 3.81501C20.4134 2.72316 19.3775 1.96985 17.9918 1.28582C16.5434 0.570868 15.1938 0.189233 13.5909 0.0412586C13.0927 -0.00471148 11.9602 -0.0146285 11.5616 0.0235252ZM19.7208 7.00029C20.0175 7.16448 20.2626 7.4275 20.4243 7.75535L20.5345 7.9789V12.4977V17.0166L20.4243 17.2401C20.2626 17.568 20.0175 17.831 19.7208 17.9952L19.4588 18.1402H12.4907H5.52265L5.2606 17.9952C4.96388 17.831 4.71885 17.568 4.55714 17.2401L4.44688 17.0166V12.4977V7.9789L4.58409 7.69975C4.74927 7.3637 5.07386 7.06487 5.41786 6.93223C5.66489 6.83697 5.79105 6.83541 12.564 6.84528L19.4588 6.85529L19.7208 7.00029ZM7.06471 8.16903C7.21914 8.31573 12.3998 12.4058 12.4608 12.4291C12.511 12.4484 17.585 8.48701 17.9167 8.16957C17.9782 8.11075 17.2095 8.10103 12.4907 8.10103C7.7914 8.10103 7.00349 8.1109 7.06471 8.16903ZM5.74269 12.7553C5.74269 16.5465 5.7469 16.7366 5.83213 16.8136C5.91437 16.888 6.44722 16.8945 12.4992 16.8945C18.818 16.8945 19.08 16.8909 19.1581 16.8048C19.2326 16.7226 19.2383 16.3879 19.2268 12.7557L19.2143 8.7963L18.1874 9.61355C14.0948 12.8706 12.7566 13.9128 12.6317 13.9401C12.5542 13.9572 12.429 13.9576 12.3537 13.941C12.2784 13.9245 11.4257 13.284 10.4589 12.5176C9.06105 11.4096 6.51226 9.38858 5.85491 8.86689L5.74269 8.77788V12.7553Z" fill="white"/>
</svg>
