<svg width="25" height="25" viewBox="0 0 25 25" fill="none" xmlns="http://www.w3.org/2000/svg">
<path fill-rule="evenodd" clip-rule="evenodd" d="M11.3127 0.0303495C7.39826 0.437299 3.97328 2.56357 1.88923 5.88066C-0.527047 9.7266 -0.633892 14.7383 1.61671 18.6651C2.80131 20.7319 4.5389 22.4313 6.5898 23.5288C8.33484 24.4626 10.2612 24.9776 12.0701 24.994L12.7303 25L12.7427 20.1449L12.7552 15.2898H11.4102H10.0652V13.7252V12.1606L11.3978 12.1476L12.7303 12.1345L12.758 10.4958C12.7831 9.00834 12.7956 8.82088 12.8935 8.46569C13.2658 7.11413 14.1643 6.21497 15.5176 5.83942C15.8695 5.74173 16.024 5.73068 17.0579 5.72926C17.6899 5.72838 18.4216 5.74594 18.6838 5.76825L19.1606 5.8088V7.21896V8.62912L17.9992 8.64546C16.8445 8.66165 16.8364 8.66253 16.5854 8.79471C16.0466 9.07853 15.9821 9.3059 15.9821 10.9194V12.159H17.5224C18.3696 12.159 19.0627 12.1755 19.0626 12.1957C19.0625 12.2158 18.9745 12.9024 18.867 13.7213C18.7595 14.5402 18.6716 15.2281 18.6716 15.25C18.6716 15.2719 18.0664 15.2898 17.3268 15.2898H15.9821V19.9125C15.9821 22.455 15.9907 24.5353 16.0011 24.5353C16.0944 24.5353 17.2583 24.095 17.6989 23.893C19.1696 23.2189 20.3116 22.4071 21.4841 21.2024C22.5043 20.1543 23.1376 19.2482 23.7873 17.9069C24.3648 16.7144 24.7588 15.3847 24.9396 14.0179C25.0201 13.4095 25.0201 11.5267 24.9397 10.9605C24.5286 8.06798 23.3346 5.6345 21.3546 3.65371C19.4151 1.71343 16.9975 0.503436 14.2462 0.0958998C13.6463 0.00701559 11.9102 -0.0317275 11.3127 0.0303495Z" fill="white"/>
</svg>
