<svg width="25" height="25" viewBox="0 0 25 25" fill="none" xmlns="http://www.w3.org/2000/svg">
<path fill-rule="evenodd" clip-rule="evenodd" d="M11.3133 0.0303533C7.40168 0.437109 3.97352 2.5659 1.891 5.8814C-1.06167 10.5823 -0.510591 16.7909 3.22242 20.8808C5.28836 23.1443 7.87208 24.4974 10.9705 24.9388C11.549 25.0212 13.4713 25.0202 14.0752 24.9371C16.905 24.548 19.4394 23.293 21.3668 21.3261C21.9994 20.6806 22.1342 20.5263 22.5538 19.9667C23.8041 18.299 24.6228 16.266 24.9387 14.0441C25.0205 13.4685 25.0205 11.5372 24.9386 10.9619C24.7279 9.4807 24.3447 8.2187 23.7301 6.98097C23.0788 5.6696 22.4104 4.73471 21.3701 3.67986C19.4404 1.72303 17.0241 0.507462 14.2464 0.0959118C13.6466 0.00701647 11.9107 -0.0317315 11.3133 0.0303533ZM15.4603 5.36016C16.8657 5.45121 17.6875 5.75923 18.4391 6.47661C19.2028 7.20553 19.5551 8.10089 19.649 9.55149C19.7109 10.5073 19.7108 14.4734 19.6489 15.4444C19.5555 16.9089 19.1957 17.8144 18.4128 18.5554C17.6839 19.2451 16.8413 19.5563 15.4603 19.6458C14.5221 19.7066 10.4992 19.7066 9.56101 19.6458C8.15561 19.5548 7.33381 19.2468 6.58218 18.5294C5.81851 17.8005 5.46618 16.9051 5.37231 15.4545C5.3109 14.5058 5.31124 10.4261 5.37285 9.52356C5.47059 8.09091 5.82413 7.20015 6.58218 6.47661C7.3033 5.78834 8.17018 5.44896 9.4242 5.36388C10.2507 5.30781 14.6111 5.30512 15.4603 5.36016ZM10.726 6.63757C9.25723 6.66404 9.02015 6.6793 8.68992 6.76878C7.64986 7.05064 7.05942 7.64174 6.78093 8.67986C6.69233 9.01015 6.67703 9.25521 6.6498 10.7784C6.63288 11.727 6.63288 13.2791 6.6498 14.2276C6.67703 15.7508 6.69233 15.9958 6.78093 16.3261C7.05952 17.3646 7.65206 17.9576 8.68992 18.2363C9.02 18.325 9.26491 18.3403 10.7872 18.3675C11.7351 18.3845 13.2862 18.3845 14.2341 18.3675C15.7689 18.3401 15.9995 18.3255 16.3397 18.2342C17.3523 17.9625 17.9654 17.3491 18.2387 16.3344C18.3308 15.9929 18.3449 15.7685 18.372 14.2276C18.3887 13.2791 18.3887 11.7269 18.372 10.7784C18.3452 9.24983 18.3303 9.01132 18.2409 8.67986C17.9603 7.63944 17.3657 7.04501 16.3314 6.77103C15.9501 6.6701 15.8492 6.66536 13.0974 6.61947C12.7074 6.61296 11.6403 6.62108 10.726 6.63757ZM16.6512 7.85833C16.8385 7.92912 17.0557 8.14023 17.1371 8.33064C17.3733 8.88314 16.9516 9.51862 16.3488 9.51862C15.8881 9.51862 15.4931 9.12566 15.4931 8.66719C15.4931 8.07477 16.1009 7.65025 16.6512 7.85833ZM13.6968 9.0145C14.2881 9.22204 14.6164 9.42874 15.0805 9.88555C15.5303 10.3284 15.8115 10.7698 16.0154 11.3533C16.1424 11.7169 16.1522 11.7985 16.1522 12.503C16.1522 13.2075 16.1424 13.2891 16.0154 13.6527C15.8183 14.2167 15.5297 14.6762 15.1061 15.1C14.6824 15.5239 14.2233 15.8128 13.6596 16.01C13.2963 16.1371 13.2147 16.1468 12.5106 16.1468C11.8066 16.1468 11.725 16.1371 11.3617 16.01C10.7785 15.806 10.3374 15.5246 9.89485 15.0745C9.44058 14.6124 9.2343 14.2855 9.02137 13.6899C8.8742 13.2784 8.86814 13.2311 8.8697 12.503C8.87117 11.8117 8.88295 11.71 9.00294 11.3533C9.25777 10.5952 9.80156 9.88134 10.4555 9.44631C11.1721 8.96959 11.6839 8.82756 12.6084 8.84894C13.1974 8.86254 13.3147 8.8804 13.6968 9.0145ZM11.934 10.1819C10.6485 10.5281 9.86566 11.8186 10.1886 13.0592C10.4224 13.9575 11.0584 14.5929 11.9583 14.8274C13.6387 15.2654 15.2713 13.6318 14.8336 11.9503C14.4929 10.6415 13.1863 9.8446 11.934 10.1819Z" fill="white"/>
</svg>
