<svg width="25" height="25" viewBox="0 0 25 25" fill="none" xmlns="http://www.w3.org/2000/svg">
<path fill-rule="evenodd" clip-rule="evenodd" d="M11.3133 0.0303533C7.40168 0.437109 3.97352 2.5659 1.891 5.8814C-1.06167 10.5823 -0.510591 16.7909 3.22242 20.8808C5.28836 23.1443 7.87208 24.4974 10.9705 24.9388C11.549 25.0212 13.4713 25.0202 14.0752 24.9371C16.905 24.548 19.4394 23.293 21.3668 21.3261C21.9994 20.6806 22.1342 20.5263 22.5538 19.9667C23.8041 18.299 24.6228 16.266 24.9387 14.0441C25.0205 13.4685 25.0205 11.5372 24.9386 10.9619C24.7279 9.4807 24.3447 8.2187 23.7301 6.98097C23.0788 5.6696 22.4104 4.73471 21.3701 3.67986C19.4404 1.72303 17.0241 0.507462 14.2464 0.0959118C13.6466 0.00701647 11.9107 -0.0317315 11.3133 0.0303533ZM8.08579 5.43824C8.4322 5.55982 8.84731 5.98355 8.96827 6.33903C9.25102 7.17011 8.86574 8.04825 8.09117 8.33822C7.17843 8.67996 6.24677 8.39615 5.83406 7.65064C5.70156 7.41121 5.69002 7.35132 5.69002 6.90117C5.69002 6.49055 5.70733 6.37959 5.79768 6.21056C6.02758 5.78061 6.36582 5.50825 6.83554 5.37488C7.12357 5.29313 7.76496 5.32562 8.08579 5.43824ZM17.3755 9.64328C17.8712 9.77796 18.4167 10.0935 18.769 10.4494C19.1459 10.83 19.3711 11.1945 19.5605 11.7299C19.8322 12.4983 19.8447 12.6822 19.8447 15.9341V18.9121H18.329H16.8133L16.8124 16.2335C16.8117 14.1192 16.7971 13.4864 16.7427 13.2298C16.6166 12.6346 16.3783 12.2911 15.9432 12.0776C15.5555 11.8875 15.009 11.8838 14.6131 12.0686C14.2606 12.2332 13.9671 12.535 13.7701 12.9352L13.6107 13.2591L13.595 16.0856L13.5793 18.9121H12.0671H10.5549V14.3132V9.71431H12.0706H13.5863L13.5879 10.3626L13.5894 11.0108L13.7133 10.864C13.7814 10.7833 13.9232 10.6148 14.0283 10.4894C14.3828 10.067 15.0894 9.68056 15.7141 9.56749C16.06 9.50492 17.0288 9.5491 17.3755 9.64328ZM8.88056 14.3254L8.89302 18.9121H7.35264H5.81225V14.3458C5.81225 11.8343 5.82721 9.76456 5.84555 9.74621C5.86383 9.72791 6.55142 9.71877 7.37347 9.72586L8.86809 9.73878L8.88056 14.3254Z" fill="white"/>
</svg>
