<svg width="17" height="19" viewBox="0 0 17 19" fill="none" xmlns="http://www.w3.org/2000/svg">
<path fill-rule="evenodd" clip-rule="evenodd" d="M13.2204 0.0523543C12.5795 0.168152 12.0423 0.448479 11.5541 0.921914C11.1752 1.28935 10.9161 1.68785 10.7747 2.12079C10.5477 2.81554 10.549 3.24886 10.7806 4.17461C10.7972 4.24078 10.4615 4.45416 8.21145 5.80766C6.78792 6.66397 5.60974 7.36978 5.59327 7.37612C5.57679 7.38247 5.4289 7.27803 5.26457 7.14404C4.91353 6.85789 4.4009 6.59697 3.9722 6.48633C3.56444 6.38108 2.83231 6.37395 2.44358 6.47138C1.47481 6.71426 0.645499 7.37972 0.261968 8.22193C0.0612595 8.66274 0 8.96125 0 9.49867C0 10.0361 0.0612595 10.3346 0.261968 10.7754C0.638008 11.6011 1.45582 12.2684 2.38832 12.5102C2.8304 12.6248 3.52997 12.6251 3.9722 12.511C4.4009 12.4004 4.91353 12.1395 5.26457 11.8533C5.4289 11.7193 5.57679 11.6149 5.59327 11.6212C5.60974 11.6276 6.78792 12.3334 8.21145 13.1897C10.4615 14.5432 10.7972 14.7566 10.7806 14.8227C10.5483 15.7514 10.5479 16.2097 10.779 16.8845C10.9346 17.3388 11.1571 17.6824 11.5389 18.0578C12.0562 18.5666 12.6159 18.85 13.3241 18.9616C14.9239 19.2137 16.4944 18.199 16.9122 16.6433C17.0878 15.9893 16.995 15.1503 16.6782 14.5273C16.1282 13.4457 15.0229 12.7857 13.7745 12.7933C12.948 12.7984 12.2483 13.0652 11.6292 13.6114L11.4242 13.7922L10.0103 12.9396C9.23257 12.4707 8.05458 11.7616 7.39249 11.3638C6.73041 10.966 6.18496 10.6374 6.18037 10.6337C6.17578 10.6299 6.20479 10.5217 6.24488 10.3931C6.41903 9.83445 6.41903 9.1629 6.24488 8.60421C6.20479 8.47568 6.17578 8.36746 6.18037 8.36367C6.18496 8.35992 6.73041 8.03138 7.39249 7.63359C8.05458 7.23579 9.23257 6.5269 10.0103 6.05825L11.4242 5.20617L11.662 5.4132C12.6341 6.2596 14.043 6.45178 15.208 5.89684C16.0484 5.4966 16.6932 4.71815 16.9128 3.83868C17.0253 3.38856 17.025 2.77401 16.9122 2.3541C16.4839 0.759129 14.8717 -0.246048 13.2204 0.0523543ZM14.3503 1.20707C15.3996 1.5064 16.0273 2.53522 15.7806 3.55142C15.6937 3.9095 15.5139 4.21688 15.2306 4.49201C14.7992 4.911 14.2671 5.10893 13.6789 5.06926C13.1476 5.03341 12.7273 4.84702 12.3592 4.48392C11.5581 3.69371 11.5991 2.38761 12.4482 1.64617C12.6651 1.45681 12.922 1.31774 13.2395 1.21794C13.5128 1.13202 14.0682 1.1266 14.3503 1.20707ZM3.85175 7.6363C4.43335 7.83883 4.90007 8.29749 5.10487 8.86772C5.22808 9.21078 5.22781 9.78784 5.10434 10.1296C4.89881 10.6985 4.42968 11.1606 3.85606 11.3592C3.53685 11.4696 3.01574 11.4928 2.69198 11.411C1.77844 11.18 1.16336 10.4116 1.16336 9.50149C1.16336 8.60491 1.74186 7.85668 2.63466 7.59859C2.94615 7.50851 3.5375 7.52684 3.85175 7.6363ZM14.2621 13.9712C15.0029 14.1408 15.6055 14.7246 15.7794 15.4408C16.0273 16.4624 15.4021 17.4902 14.3503 17.7903C14.0795 17.8675 13.5442 17.8672 13.2751 17.7896C12.5688 17.586 12.0586 17.0905 11.8489 16.4045C11.7709 16.1494 11.7695 15.6675 11.8458 15.3829C12.0405 14.6571 12.7071 14.0648 13.4688 13.941C13.683 13.9061 14.0368 13.9196 14.2621 13.9712Z" fill="#A1A1A1"/>
</svg>
