<svg width="25" height="25" viewBox="0 0 25 25" fill="none" xmlns="http://www.w3.org/2000/svg">
<path fill-rule="evenodd" clip-rule="evenodd" d="M11.5716 0.0235252C9.75873 0.197244 8.38071 0.582885 6.87473 1.33805C5.67829 1.93795 4.70515 2.64998 3.67767 3.6772C2.57885 4.77584 1.88946 5.74058 1.23221 7.09955C0.461798 8.69239 0.0724637 10.2774 0.00820982 12.0825C-0.0659631 14.166 0.362559 16.1489 1.28972 18.0128C1.94286 19.3258 2.61394 20.2547 3.67767 21.3183C4.75313 22.3935 5.6864 23.0649 7.00299 23.7106C7.92165 24.1612 8.51479 24.3805 9.44611 24.6141C11.8899 25.2269 14.3409 25.1094 16.7285 24.2649C17.4522 24.009 18.7156 23.3759 19.3652 22.9438C21.1485 21.7573 22.6224 20.1191 23.5982 18.2385C24.4811 16.537 24.9228 14.8488 24.9918 12.913C25.066 10.8295 24.6374 8.84656 23.7103 6.98265C23.1015 5.75875 22.4237 4.79953 21.472 3.81501C20.4168 2.72316 19.3817 1.96985 17.997 1.28582C16.5497 0.570868 15.2011 0.189233 13.5994 0.0412586C13.1016 -0.00471148 11.9699 -0.0146285 11.5716 0.0235252ZM16.1074 6.95695C16.4799 7.08182 16.8559 7.2977 17.1488 7.55481L17.3199 7.70498L17.6584 7.61714C18.0656 7.51153 18.6046 7.30117 18.8887 7.13697C19.0038 7.07054 19.0964 7.04147 19.0964 7.07185C19.0964 7.17777 18.8096 7.69335 18.611 7.94455C18.5007 8.08407 18.3002 8.28056 18.1654 8.38115C18.0307 8.48173 17.9418 8.57118 17.9681 8.57993C18.0445 8.60538 19.0011 8.36214 19.2576 8.25203L19.4919 8.15135L19.4041 8.30293C19.2815 8.51461 18.51 9.32415 18.2771 9.48546L18.0842 9.61912L18.0554 10.3623C18.0082 11.5788 17.7407 12.5946 17.1649 13.7435C15.9947 16.0781 13.9031 17.6479 11.4093 18.063C9.56162 18.3706 7.88466 18.1332 6.27006 17.3354C5.38912 16.9002 5.38858 16.9199 6.28193 16.9126C6.93546 16.9073 7.12266 16.8877 7.5202 16.7831C8.30815 16.5758 9.03596 16.2435 9.56054 15.8514L9.72389 15.7293L9.48725 15.6988C9.13676 15.6535 8.65097 15.4909 8.34671 15.3171C7.98293 15.1092 7.47627 14.5892 7.28947 14.232C7.01814 13.7131 6.99869 13.7435 7.60214 13.7435C8.31504 13.7435 8.41628 13.6966 8.00398 13.5574C7.82969 13.4985 7.57712 13.3864 7.44275 13.3081C7.10013 13.1086 6.59279 12.5774 6.40321 12.2197C6.23087 11.8945 6.05018 11.2675 6.05018 10.9947C6.05018 10.8525 6.06352 10.8322 6.13569 10.864C6.37775 10.9706 6.8826 11.1217 7.07902 11.1463L7.30164 11.1743L6.93156 10.7979C6.34086 10.1972 6.08101 9.56391 6.08555 8.73611C6.08805 8.27997 6.14336 8.01954 6.3243 7.61211L6.44381 7.34303L7.06544 7.95589C8.23266 9.10656 9.63041 9.86387 11.1563 10.1724C11.5437 10.2507 12.342 10.3434 12.3719 10.3135C12.3804 10.3049 12.3682 10.1828 12.3446 10.0422C12.2562 9.51438 12.4179 8.73401 12.7235 8.21251C13.1269 7.52442 13.9587 6.95368 14.7351 6.83233C15.1419 6.76868 15.696 6.81899 16.1074 6.95695Z" fill="white"/>
</svg>
