<svg width="24" height="24" viewBox="0 0 24 24" fill="none" xmlns="http://www.w3.org/2000/svg">
<path fill-rule="evenodd" clip-rule="evenodd" d="M4.04687 1.34985C4.18198 2.8576 5.21715 4.163 6.66815 4.65533L7.0394 4.7813L6.85844 4.89158C6.75886 4.95227 6.44223 5.17909 6.15476 5.39571C4.46368 6.66987 3.25027 8.46953 2.64354 10.6035L2.49526 11.125L2.05477 11.1568C1.53149 11.1945 1.24969 11.2761 0.932965 11.4817C-0.0112566 12.0944 -0.284195 13.3662 0.324221 14.3182C0.522151 14.6279 0.800246 14.875 1.14552 15.0479C1.45597 15.2033 1.5832 15.2332 2.07999 15.268L2.49882 15.2973L2.66877 15.8899C3.49246 18.7626 5.47598 21.0409 8.17761 22.2177C9.44601 22.7702 10.5685 23 11.9984 23C13.5692 23 14.925 22.6851 16.273 22.0073C18.8653 20.7036 20.6779 18.4297 21.4327 15.5344L21.4945 15.2973L21.915 15.268C22.4135 15.2333 22.5405 15.2034 22.8512 15.0479C24.0652 14.4401 24.3836 12.8285 23.4845 11.8422C23.0763 11.3942 22.658 11.2084 21.942 11.1568L21.5015 11.125L21.3532 10.6035C20.6349 8.07715 19.0827 6.04284 16.8784 4.73887C16.4164 4.46558 15.606 4.07074 15.5738 4.10331C15.566 4.11118 15.6229 4.25413 15.7001 4.42102C15.9568 4.97583 16.0444 5.40904 16.0444 6.12306C16.0444 6.63151 16.0235 6.84112 15.9428 7.14242C15.5406 8.64268 14.4011 9.76597 12.9045 10.1373C12.4712 10.2449 11.5256 10.2449 11.0922 10.1373C9.35028 9.70509 8.11643 8.26575 7.94058 6.46087L7.90767 6.12306H8.61693H9.32618V6.31774C9.32618 6.88218 9.61989 7.51238 10.1216 8.02443C10.6583 8.57232 11.2516 8.82555 11.9984 8.82555C12.7451 8.82555 13.3384 8.57232 13.8752 8.02443C14.4363 7.45174 14.6706 6.8891 14.6706 6.11434C14.6706 5.89539 14.6383 5.5911 14.5989 5.43805C14.4195 4.74162 13.8961 4.06732 13.2826 3.74246C12.7905 3.48188 12.5309 3.42475 11.7405 3.40299C10.7351 3.3753 10.2884 3.20428 9.73878 2.63666C9.38305 2.26932 9.09178 1.5999 9.09178 1.14982V1.00256H8.36584H7.63994L7.6691 1.29889C7.73473 1.96588 7.98315 2.67071 8.31942 3.14402C8.40901 3.27018 8.48233 3.38402 8.48233 3.39696C8.48233 3.43888 7.81152 3.42133 7.50783 3.3715C6.42249 3.19338 5.60476 2.35831 5.48976 1.31074L5.45854 1.02627L4.73704 1.01313L4.0155 1L4.04687 1.34985ZM8.08188 11.0791C9.09253 11.3453 9.82926 12.2168 9.95452 13.2941L9.98073 13.5193H9.27841C8.64088 13.5193 8.57605 13.5117 8.57581 13.4364C8.57483 13.1183 8.28853 12.6898 7.9659 12.5233C7.33517 12.1979 6.58034 12.5375 6.38921 13.2329L6.31045 13.5193H5.63837H4.96629V13.3794C4.96629 13.1132 5.06929 12.7356 5.23688 12.3873C5.53926 11.7591 6.17797 11.2402 6.85216 11.0751C7.19579 10.991 7.75414 10.9928 8.08188 11.0791ZM17.0709 11.0582C17.7629 11.2023 18.4497 11.743 18.7602 12.3879C18.9275 12.7356 19.0305 13.1133 19.0305 13.3794V13.5193H18.3584H17.6863L17.6075 13.2329C17.4164 12.5375 16.6616 12.1979 16.0309 12.5233C15.7082 12.6898 15.4219 13.1183 15.4209 13.4364C15.4207 13.5117 15.3559 13.5193 14.7183 13.5193H14.016L14.0422 13.2941C14.167 12.2211 14.8955 11.3537 15.9024 11.0795C16.201 10.9981 16.7356 10.9884 17.0709 11.0582ZM9.60484 17.0472C9.74609 17.2784 10.2574 17.7487 10.5517 17.9183C11.0212 18.1888 11.3972 18.2838 11.9984 18.2838C12.5996 18.2838 12.9756 18.1888 13.445 17.9183C13.7393 17.7487 14.2507 17.2784 14.3919 17.0472C14.4462 16.9583 14.5111 16.8856 14.5361 16.8856C14.601 16.8856 15.702 17.5495 15.7015 17.5883C15.7003 17.6715 15.1961 18.2864 14.9166 18.5455C13.4446 19.9096 11.2594 20.0767 9.58928 18.9529C9.1885 18.6832 8.7015 18.2012 8.437 17.8125C8.35383 17.6902 8.29992 17.5756 8.31722 17.5579C8.38332 17.4902 9.39918 16.89 9.45126 16.8878C9.48141 16.8866 9.55051 16.9583 9.60484 17.0472Z" fill="#F15A29"/>
</svg>
