<svg width="24" height="24" viewBox="0 0 24 24" fill="none" xmlns="http://www.w3.org/2000/svg">
<path fill-rule="evenodd" clip-rule="evenodd" d="M18.8359 1.06545C18.7475 1.11066 18.6315 1.20541 18.5781 1.27607C18.4875 1.39595 18.4801 1.4758 18.4669 2.47886L18.4527 3.55326L17.9514 2.74211C17.6758 2.29597 17.3931 1.88962 17.3232 1.83913C17.1351 1.70304 16.743 1.68569 16.5477 1.80484C16.3333 1.93569 16.2088 2.15405 16.2086 2.39968C16.2084 2.58458 16.2922 2.74015 17.0668 3.99425L17.9251 5.38394L17.3486 5.48451C15.5928 5.79079 14.6383 6.65999 14.3837 8.1843C14.1348 9.6752 14.8891 14.4468 15.8737 17.6098C16.6093 19.9729 17.4619 21.4 18.4098 21.8544C18.6871 21.9874 18.7521 22 19.1605 22C19.569 22 19.634 21.9874 19.9113 21.8544C20.6425 21.5038 21.3218 20.5707 21.9266 19.0861C22.1301 18.5866 22.5344 17.4185 22.5344 17.3302C22.5344 17.3098 22.1247 17.2868 21.6239 17.279C20.6272 17.2636 20.591 17.2543 20.3584 16.9515C20.2264 16.7798 20.2264 16.4298 20.3584 16.2581C20.5958 15.9491 20.6058 15.9468 21.8228 15.9219L22.932 15.8991L23.1047 15.1324C23.1996 14.7107 23.2911 14.2866 23.3079 14.19L23.3385 14.0143L22.2134 14.0006C21.1623 13.9878 21.0799 13.9807 20.9591 13.893C20.7273 13.7247 20.6366 13.5654 20.6366 13.3267C20.6366 13.0879 20.7273 12.9287 20.9591 12.7604C21.081 12.6719 21.1606 12.6657 22.3431 12.6531L23.5979 12.6397L23.6991 11.9701C23.7547 11.6019 23.8135 11.1736 23.8298 11.0183L23.8594 10.736L22.6613 10.7224C21.5363 10.7096 21.4554 10.703 21.334 10.6149C21.1022 10.4466 21.0115 10.2873 21.0115 10.0486C21.0115 9.80983 21.1022 9.65062 21.334 9.48229C21.456 9.39374 21.5354 9.38764 22.7317 9.37489L24 9.36141L23.9738 8.73748C23.9358 7.83391 23.7475 7.25232 23.3121 6.69299C22.8019 6.03783 21.9418 5.61281 20.795 5.44932L20.3912 5.39172L21.2519 3.99817C21.986 2.80963 22.1126 2.57775 22.1126 2.42245C22.1125 2.18137 21.9864 1.94817 21.7847 1.81604C21.65 1.72781 21.5764 1.7121 21.3727 1.72799C21.2234 1.7396 21.0742 1.78386 20.9979 1.83913C20.928 1.88962 20.6443 2.29765 20.3673 2.7458L19.8636 3.56068L19.8634 2.53627C19.8633 1.41457 19.84 1.2997 19.574 1.11034C19.3967 0.984044 19.0377 0.96219 18.8359 1.06545ZM6.00433 2.53604C5.7892 2.66343 5.66539 2.88134 5.66521 3.13279C5.66497 3.41703 5.8033 3.6012 6.18047 3.81865C6.59696 4.05877 7.0596 4.54169 7.29578 4.98274C7.48771 5.34119 7.68597 5.87274 7.74539 6.18803L7.77721 6.35681L7.55285 6.29238C7.11227 6.1659 6.48722 6.08755 5.91825 6.08755C3.02843 6.08755 0.546093 8.15225 0.063347 10.9575C-0.0478036 11.6034 -0.009988 12.5867 0.155613 13.3553C0.488175 14.8989 1.26215 16.6838 2.19128 18.0498C3.04337 19.3025 3.92813 20.138 4.88336 20.5922C5.47219 20.8722 5.87279 20.949 6.57503 20.9165C7.21246 20.8869 7.62824 20.7895 8.20096 20.5351L8.57031 20.3711L8.93965 20.5351C9.51237 20.7895 9.92815 20.8869 10.5656 20.9165C11.0069 20.9368 11.2115 20.9254 11.494 20.8643C11.9147 20.7734 12.5559 20.4747 12.9819 20.1712C13.6566 19.6906 14.6951 18.5685 14.6496 18.3693C14.6366 18.3128 14.5099 17.867 14.3679 17.3787C13.5881 14.6957 12.9638 10.992 12.9599 9.02418C12.958 8.10048 13.0474 7.55846 13.3112 6.89387C13.4784 6.4725 13.4976 6.50209 12.9517 6.33905C11.8643 6.01434 10.5846 6.00377 9.5253 6.31073L9.23847 6.39387L9.16074 6.00937C8.99223 5.17614 8.65611 4.3813 8.2227 3.79115C7.73419 3.12606 6.79611 2.44503 6.3689 2.44539C6.24027 2.44549 6.09706 2.48109 6.00433 2.53604Z" fill="#EC5016"/>
</svg>
