<svg width="24" height="24" viewBox="0 0 24 24" fill="none" xmlns="http://www.w3.org/2000/svg">
<path fill-rule="evenodd" clip-rule="evenodd" d="M7.78077 1.03158C4.02448 1.36473 0.954051 4.12454 0.159084 7.88227C-0.00810616 8.67257 -0.0500128 9.93405 0.0644674 10.7315C0.308204 12.4301 0.986172 13.9612 2.04115 15.196L2.37345 15.5849L1.88709 17.4176C1.61962 18.4255 1.40073 19.3204 1.40073 19.4063C1.40073 19.8034 1.83264 20.1846 2.21193 20.1223C2.30824 20.1065 2.86824 19.8133 3.45634 19.4706C4.04439 19.1279 4.89928 18.6298 5.35599 18.3637L6.18647 17.8799L6.48113 17.9571C7.58024 18.2452 9.06122 18.263 10.3067 18.003C11.9659 17.6568 13.737 16.5987 14.872 15.2757C16.8804 12.9344 17.512 9.738 16.5395 6.83609C16.3541 6.28275 15.894 5.34192 15.5692 4.85164C13.838 2.23897 10.8257 0.761551 7.78077 1.03158ZM16.7584 3.99974C16.7584 4.0163 16.8553 4.18716 16.9737 4.37948C17.5033 5.23981 18.007 6.52578 18.2079 7.53065C18.3581 8.28195 18.4056 8.78047 18.4056 9.60453C18.4056 10.7898 18.2631 11.7056 17.9142 12.762C16.8458 15.9969 14.2269 18.4738 10.9712 19.3286L10.5375 19.4425L10.9587 19.7202C11.805 20.2781 12.8792 20.7138 13.9301 20.9254C14.9886 21.1385 16.3957 21.1066 17.5094 20.844L17.8486 20.7641L19.7622 21.882C21.5243 22.9114 21.694 23 21.9061 23C22.2724 23.0001 22.6205 22.6611 22.6205 22.3041C22.6205 22.2092 22.402 21.3082 22.135 20.302L21.6494 18.4725L21.9702 18.0932C22.9148 16.9762 23.591 15.5536 23.8894 14.0553C23.9836 13.5821 24 13.3477 24 12.471C24 11.3075 23.9215 10.7718 23.6097 9.80935C22.6647 6.89156 20.1248 4.60787 17.2012 4.04732C16.7353 3.958 16.7584 3.96049 16.7584 3.99974ZM5.21278 8.92168C5.40715 8.99596 5.60443 9.20132 5.66775 9.39531C5.83673 9.91318 5.32809 10.4365 4.79643 10.2917C4.56607 10.229 4.32451 9.96639 4.28091 9.73129C4.18406 9.20901 4.72802 8.73642 5.21278 8.92168ZM8.81138 8.9798C9.33146 9.24949 9.33039 9.95752 8.80954 10.2321C8.55912 10.3641 8.30259 10.3482 8.07867 10.1869C7.65587 9.88245 7.71488 9.19387 8.18428 8.95539C8.40835 8.84152 8.55582 8.84725 8.81138 8.9798ZM12.3781 8.99028C12.6811 9.19108 12.7828 9.66862 12.5905 9.9876C12.4672 10.1921 12.1141 10.361 11.8967 10.3194C11.2048 10.1871 11.0587 9.3024 11.6751 8.97676C11.9163 8.84926 12.1728 8.85421 12.3781 8.99028Z" fill="#EC5016"/>
</svg>
