<svg width="100" height="100" viewBox="0 0 100 100" fill="none" xmlns="http://www.w3.org/2000/svg">
<path d="M42.1919 81.7968C43.8852 81.7968 47.0602 82.126 47.5306 82.0555C47.5541 81.4205 45.2728 75.7526 41.9567 76.0583C39.9812 76.2229 37.3001 80.174 37.3001 80.174C37.3001 80.174 34.8542 83.8664 37.5823 86.1242C40.1223 88.2173 42.7563 84.7836 42.7563 84.7836C42.7563 84.7836 42.5682 84.666 42.1919 81.7968Z" fill="#BE1E2D"/>
<path d="M40.8514 76.9519C40.8514 76.9519 46.6134 75.9171 46.3782 82.3846C46.2841 85.1363 57.3612 82.4317 57.3612 82.4317L58.6077 77.9867C58.6077 77.9867 48.683 70.6019 40.1928 76.8813C39.5814 78.0102 40.9454 78.7628 40.9454 78.7628" fill="#F7941D"/>
<path d="M55.1976 81.3733C55.1976 81.3733 55.3622 82.22 55.5503 82.22C55.7385 82.22 55.6914 81.3733 55.6914 81.3733H55.1976Z" fill="#FFDCAE"/>
<path d="M63.3114 67.0742C63.3114 67.0742 64.2521 61.5474 74.9059 50.3997C86.6181 30.8559 77.2107 16.5097 77.2107 16.5097C77.2107 16.5097 71.8721 2.86908 47.0837 3.64519C22.2954 4.42129 17.921 24.1061 18.7912 33.7251C19.6613 43.3442 29.1627 53.6922 33.3725 61.9707C37.5588 70.2491 36.6886 67.8267 36.6886 67.8267C36.6886 67.8267 46.8485 64.2049 63.3114 67.0742Z" fill="#F7941D"/>
<path d="M36.6886 68.6264C36.3358 68.6264 36.0771 68.1796 35.5833 67.2859C34.9953 66.2511 34.1016 64.5342 32.9022 62.1589C31.5381 59.4778 29.6331 56.6086 27.6105 53.5512C23.5183 47.3659 18.8617 40.3339 18.2738 33.7487C17.7328 27.681 19.2145 18.8381 25.0706 12.2295C30.1505 6.51449 37.5353 3.45711 47.0367 3.15137C54.1863 2.93971 64.2521 3.8334 71.6839 9.38373C75.9642 12.5822 77.4224 15.8513 77.6105 16.2746C77.8928 16.6979 80.0329 20.2492 80.9031 26.0347C81.7262 31.6086 81.4205 40.4044 75.3057 50.6349L75.2352 50.729C69.826 56.3969 66.9802 60.5832 65.5691 63.0761C64.0404 65.7807 63.7817 67.1683 63.7582 67.1683L63.6642 67.6387L63.1938 67.5681C48.8241 65.0516 39.1816 67.5681 37.159 68.1561C37.159 68.3207 37.0884 68.5089 36.8768 68.6029C36.8297 68.6029 36.7592 68.6264 36.6886 68.6264ZM49.0122 4.06859C48.3772 4.06859 47.7187 4.06859 47.0602 4.09211C37.8175 4.37433 30.6679 7.31412 25.7761 12.8409C20.1317 19.2144 18.6971 27.7751 19.2145 33.6547C19.7789 40.0281 24.365 46.9425 28.4102 53.0338C30.4563 56.1147 32.3612 59.0074 33.7488 61.7356C35.4892 65.1692 36.3123 66.6509 36.6886 67.3094C38.1703 66.839 48.048 64.0168 62.9586 66.5333C63.4055 64.9811 65.5221 59.5484 74.5296 50.094C80.4563 40.1457 80.762 31.6321 79.9859 26.2229C79.1392 20.3433 76.8344 16.7685 76.8109 16.745L76.7639 16.6509C76.7404 16.6274 75.3998 13.2878 71.096 10.0893C67.3095 7.31412 60.4657 4.06859 49.0122 4.06859Z" fill="#F15A29"/>
<path d="M81.6087 28.9041C80.6679 18.7442 75.635 11.4065 66.6275 7.14964C59.6425 3.83356 52.4224 3.5043 50.3763 3.48078C50.2587 3.48078 50.1411 3.48078 50.0706 3.48078C49.9765 3.48078 49.8824 3.48078 49.7648 3.48078C47.7187 3.45726 40.4986 3.62189 33.4431 6.77335C24.3415 10.8185 19.1439 18.0151 17.968 28.175C17.0038 36.5476 20.5786 43.0857 24.0122 49.3886C24.6472 50.5645 25.047 51.9521 25.9407 52.9634C33.2079 61.2418 34.8307 65.334 34.9718 65.6633L42.0273 82.6435L42.8269 82.0556L36.7827 66.8862C36.7827 66.8862 36.7592 66.8157 36.7121 66.6981L36.1947 65.4751L35.7008 64.3698C34.5484 62.1355 31.8203 58.3726 26.7168 52.5636C25.8231 51.5523 25.4233 50.1412 24.7883 48.9653C21.4017 42.7564 18.3208 36.43 19.2615 28.2926C21.9426 5.1741 45.1082 4.82133 49.8119 4.89188C49.9294 4.89188 50.0235 4.89188 50.1176 4.89188C50.1881 4.89188 50.3057 4.89188 50.4233 4.89188C55.127 4.93892 78.0103 5.47984 80.1505 28.6454C80.9031 36.7828 77.9398 43.4149 74.412 49.5297C73.73 50.6821 73.0715 51.5052 72.2719 52.6106C68.2267 58.1374 65.4045 59.9954 62.9821 65.0518L62.8881 65.2635L56.8909 82.1967L57.667 82.4789L64.2051 65.1929C64.2521 65.0988 64.7695 62.5118 73.1421 53.4573C74.0593 52.4695 74.4826 51.0819 75.1411 49.9295C78.6689 43.7442 82.3848 37.3002 81.6087 28.9041Z" fill="#F15A29"/>
<path d="M88.2879 43.9321C45.3904 26.0582 13.2643 42.7327 13.2643 42.7327L21.3547 60.1127C21.3547 60.1127 51.6698 49.2473 80.3151 60.7948L88.2879 43.9321Z" fill="#BE1E2D"/>
<path d="M80.5739 61.3358L80.174 61.1712C71.778 57.7845 62.3942 55.9972 52.3048 55.8796C35.1129 55.6679 21.6369 60.4186 21.4958 60.4656L21.1195 60.6067L12.7705 42.5211L13.0762 42.3565C13.2173 42.286 27.0696 34.7366 48.73 34.9953C61.4299 35.1364 71.3782 36.3829 88.4525 43.5324C88.4525 43.5324 88.7582 43.5795 88.8053 43.6735C87.7469 46.778 80.5739 61.3358 80.5739 61.3358ZM13.7817 42.921L21.5898 59.5719C23.9182 58.7958 36.571 54.8683 52.3048 55.0564C62.3471 55.174 71.6839 56.9144 80.0564 60.2305L87.7705 44.1439C75.9878 38.8758 62.1355 36.2653 49.6472 36.1242C30.0094 35.9125 15.969 41.8156 13.7817 42.921Z" fill="#BE1E2D"/>
<path d="M25.4939 50.1883C25.682 50.3059 25.8467 50.3764 25.9878 50.4235C26.1289 50.4705 26.2465 50.4705 26.3405 50.447C26.4346 50.4 26.5522 50.3294 26.6463 50.1883L26.9991 50.4705C26.8815 50.9174 26.6463 51.2701 26.3405 51.5524C26.1994 51.67 26.0348 51.764 25.8702 51.8111C25.682 51.8816 25.4704 51.8581 25.2117 51.7875C24.953 51.6935 24.6943 51.5524 24.412 51.3642C24.1298 51.1526 23.8711 50.9409 23.6124 50.7057C23.3537 50.4705 23.095 50.1883 22.8128 49.8826C22.3189 49.3181 21.9191 48.8478 21.6134 48.4244C21.4958 48.8242 21.3547 49.1535 21.2371 49.4122L21.778 50.9879L22.46 52.6812C22.1778 52.8929 21.8485 53.0575 21.4487 53.1751C21.0489 53.3162 20.7902 53.3633 20.6256 53.2927L20.0847 51.5288L18.5795 47.178C18.4149 46.7311 18.1797 46.4724 17.8739 46.4489C17.8269 46.4489 17.7799 46.4489 17.7093 46.4489C17.6388 46.4489 17.5917 46.4489 17.5682 46.4489C17.4976 46.4018 17.4271 46.2843 17.3565 46.1196C17.3095 45.955 17.2625 45.8374 17.2625 45.7669C17.4271 45.6728 17.7563 45.5317 18.2032 45.367C18.6736 45.2024 19.1439 45.0613 19.6613 44.9202L20.8137 48.2833C20.8373 48.2128 20.8608 48.0481 20.9078 47.8365C20.9548 47.6248 21.0019 47.4367 21.0254 47.2955C21.0489 47.1544 21.096 46.9663 21.1665 46.7311C21.2371 46.4959 21.2841 46.2843 21.3311 46.1431C21.3782 45.9785 21.4487 45.7904 21.5193 45.5787C21.5898 45.367 21.6839 45.1789 21.7545 45.0143C21.825 44.8732 21.9191 44.7085 22.0367 44.5204C22.1543 44.3558 22.2484 44.1911 22.3659 44.0735C22.6011 43.7913 22.9069 43.6032 23.2126 43.5091C23.5419 43.3915 23.8476 43.3915 24.1533 43.5091C24.4591 43.6267 24.6707 43.8383 24.7883 44.1911C24.9059 44.5204 24.8824 44.8496 24.7178 45.1319C24.5531 45.4141 24.318 45.6257 24.0122 45.7198C23.9417 45.7433 23.8711 45.7669 23.8006 45.7669C23.683 45.3906 23.4948 45.1554 23.2832 45.0613C23.1891 45.0143 23.095 45.0143 23.0009 45.0613C22.9069 45.0848 22.8128 45.1789 22.7187 45.273C22.6246 45.3906 22.5541 45.5082 22.4835 45.6493C22.413 45.7904 22.3424 45.9785 22.2484 46.2137C22.1072 46.59 21.9661 47.0133 21.825 47.4837C22.0367 47.6483 22.2954 47.8365 22.6011 48.0716C22.9069 48.3068 23.1891 48.5185 23.4007 48.6831C23.6124 48.8478 23.8711 49.0359 24.1533 49.2476C24.4356 49.4592 24.6707 49.6239 24.8589 49.765C25.1176 49.9531 25.3057 50.0707 25.4939 50.1883Z" fill="white"/>
<path d="M27.3989 46.4015C27.3518 46.1193 27.2107 45.9547 26.9991 45.9547C26.858 45.9312 26.6698 45.9312 26.4346 45.9547C26.3876 45.8371 26.3641 45.7666 26.3405 45.696C26.3405 45.649 26.317 45.6019 26.317 45.5549C26.8109 45.1551 27.4459 44.8729 28.269 44.7317C28.4102 44.7082 28.5042 44.6847 28.5748 44.6847C28.7159 44.8258 28.8335 45.1316 28.9746 45.6254C29.0452 45.8371 29.1157 46.1664 29.2098 46.6132C29.2803 47.0601 29.5155 48.4006 29.8918 50.6348C29.492 50.776 29.1392 50.87 28.8805 50.9406C28.5983 50.9876 28.3631 50.9876 28.1515 50.9641C28.0574 50.0469 27.9398 49.2237 27.8222 48.5182C27.6811 47.7891 27.54 47.0836 27.3989 46.4015ZM26.8109 42.2623C26.9991 42.0271 27.2107 41.886 27.4929 41.8625C27.7516 41.8155 27.9868 41.8625 28.175 41.9801C28.3631 42.1212 28.5042 42.3094 28.5513 42.6151C28.5983 42.8973 28.5278 43.156 28.3631 43.4147C28.175 43.6499 27.9398 43.791 27.6811 43.838C27.3989 43.8851 27.1637 43.838 26.9755 43.6969C26.7874 43.5558 26.6698 43.3442 26.6228 43.0855C26.5522 42.7797 26.6228 42.521 26.8109 42.2623Z" fill="white"/>
<path d="M48.6124 47.366C48.9417 47.7658 49.3415 48.001 49.8354 48.0715C50.3293 48.1421 50.8702 48.001 51.4346 47.6482C51.5992 47.8128 51.6933 47.9775 51.7168 48.1421C51.317 48.4949 50.7526 48.7065 50.047 48.7771C49.7648 48.8006 49.4356 48.8006 49.0828 48.73C48.73 48.683 48.3537 48.5419 48.0009 48.3538C47.6246 48.1656 47.3189 47.9304 47.0602 47.6247C46.8015 47.3189 46.6134 46.9662 46.4958 46.5428C46.3782 46.1195 46.3547 45.6491 46.4252 45.1553C46.4958 44.6614 46.6604 44.2145 46.8956 43.8617C47.1308 43.4855 47.4365 43.2032 47.7658 42.9916C48.4713 42.5447 49.2239 42.3801 50.0235 42.4977C50.7291 42.6153 51.317 42.8975 51.7639 43.3443C51.9755 43.5795 52.1402 43.8382 52.2578 44.1675C52.3518 44.4967 52.3753 44.8495 52.3283 45.2258C52.2342 45.8608 51.9755 46.1901 51.5287 46.143L48.1185 45.8843C48.1185 46.4723 48.2832 46.9662 48.6124 47.366ZM50.588 43.7206C50.3763 43.4384 50.0706 43.2503 49.6707 43.2032C49.2709 43.1327 48.9417 43.2738 48.6595 43.6266C48.4007 43.9793 48.2126 44.4732 48.1185 45.1553C49.0828 45.2023 49.9294 45.2258 50.7055 45.2258C50.7526 45.0847 50.7761 44.9671 50.7996 44.8495C50.8702 44.3792 50.7996 44.0029 50.588 43.7206Z" fill="white"/>
<path d="M52.7987 52.6576C52.9633 51.905 53.1279 50.6115 53.3161 48.73C53.5042 46.8721 53.5983 45.4139 53.5983 44.3791C53.6218 43.9793 53.4337 43.7441 53.0103 43.6736C53.0103 43.6501 53.0103 43.6265 53.0103 43.5795C53.0103 43.556 53.0103 43.5089 53.0103 43.5089C53.0103 43.4619 53.0103 43.4149 53.0103 43.3678C53.0103 43.3208 53.0103 43.2973 53.0339 43.2738C53.5513 43.1326 53.9746 43.0621 54.3038 43.0386C54.6331 43.0386 54.8683 43.0386 55.0094 43.0386C55.1505 43.0621 55.2446 43.0621 55.2916 43.0621C55.3622 43.2032 55.4092 43.4619 55.3857 43.8147C55.6679 43.603 55.9972 43.4384 56.3735 43.3443C56.7498 43.2502 57.079 43.2032 57.3848 43.2267C57.6905 43.2502 57.9492 43.2973 58.1609 43.3678C58.3725 43.4384 58.5842 43.556 58.7959 43.6971C59.0075 43.8382 59.1721 44.0263 59.3133 44.238C59.666 44.7789 59.7836 45.508 59.6896 46.4017C59.6425 46.8485 59.5249 47.2484 59.3603 47.6011C59.1957 47.9539 58.984 48.2596 58.7253 48.4948C58.4666 48.73 58.2079 48.9182 57.9022 49.0828C57.3142 49.3885 56.7498 49.5061 56.2088 49.4356C55.6679 49.3885 55.2211 49.2709 54.9153 49.1298C54.8448 49.8589 54.7037 51.0583 54.5155 52.7987C54.1627 52.8222 53.857 52.8222 53.5748 52.7987C53.269 52.8222 53.0103 52.7752 52.7987 52.6576ZM55.3387 44.4497C55.2681 45.3904 55.127 46.731 54.9624 48.4713C55.1975 48.5889 55.4562 48.6595 55.762 48.683C56.0677 48.7065 56.3264 48.683 56.5381 48.6124C56.7498 48.5419 56.9614 48.4243 57.1496 48.2361C57.5729 47.8598 57.8551 47.2484 57.9257 46.3782C58.0197 45.508 57.9022 44.8965 57.5729 44.5437C57.3377 44.285 57.0085 44.1439 56.6086 44.0969C56.2088 44.0734 55.7855 44.191 55.3387 44.4497Z" fill="white"/>
<path d="M79.6566 49.3648L79.6331 49.5059C79.6096 49.5765 79.5861 49.694 79.5391 49.8352C79.492 49.9763 79.445 50.1644 79.3744 50.3996C79.3039 50.6348 79.2333 50.8464 79.1863 51.0581C79.6566 50.87 80.1035 50.8464 80.5503 50.964C81.1618 51.1287 81.5616 51.4344 81.7733 51.8577C81.985 52.2811 81.985 52.7985 81.8203 53.4099C81.6557 53.9744 81.397 54.3977 81.0442 54.6799C80.3387 55.2209 79.5155 55.362 78.5513 55.1033C77.8928 54.9151 77.3518 54.6799 76.9285 54.4212C77.1637 53.7392 77.4459 52.8455 77.7517 51.7637C78.0574 50.6818 78.2926 49.8822 78.4102 49.3883C78.4337 49.2472 78.4102 49.1296 78.3631 49.0355C78.2926 48.9415 78.1985 48.8474 78.0574 48.8003C78.0809 48.6592 78.0809 48.5887 78.0809 48.5652C78.0809 48.5416 78.1044 48.5181 78.1044 48.5181C78.6454 48.4711 79.1863 48.5181 79.6802 48.6592C79.7037 48.6592 79.7272 48.6828 79.7507 48.6828C79.7742 48.7533 79.7507 48.9885 79.6566 49.3648ZM78.9981 51.599L78.7159 52.6103C78.5042 53.3864 78.3396 53.9744 78.222 54.4212C78.3396 54.4683 78.5042 54.5388 78.6924 54.5859C79.0452 54.6799 79.3744 54.6329 79.7272 54.4212C80.1035 54.186 80.3857 53.7627 80.5739 53.1512C80.8326 52.2105 80.6914 51.6461 80.127 51.505C79.9859 51.4579 79.8213 51.4579 79.6566 51.4579C79.4685 51.4814 79.2568 51.5285 78.9981 51.599Z" fill="white"/>
<path d="M79.3039 55.2915C79.0452 55.2915 78.7865 55.2445 78.5042 55.1504C77.8457 54.9622 77.2813 54.7271 76.8815 54.4683L76.8344 54.4448L76.858 54.3978C77.0931 53.7158 77.3754 52.8221 77.6811 51.7402C77.9868 50.6584 78.222 49.8588 78.3396 49.3649C78.3631 49.2473 78.3396 49.1532 78.2926 49.0591C78.222 48.9651 78.1515 48.8945 78.0104 48.8475L77.9633 48.8239V48.7769C77.9868 48.6123 77.9868 48.5652 78.0104 48.5417C78.0104 48.5182 78.0339 48.4947 78.0339 48.4712L78.0574 48.4241H78.1044C78.6689 48.3771 79.2098 48.4241 79.7037 48.5652L79.7977 48.5888L79.8213 48.6123C79.8448 48.6828 79.8683 48.8239 79.7507 49.3649L79.7272 49.506C79.7037 49.5765 79.6802 49.6941 79.6331 49.8352C79.5861 49.9763 79.539 50.1645 79.4685 50.3762L79.3039 50.8936C79.5626 50.7995 79.8213 50.776 80.08 50.776C80.2446 50.776 80.4092 50.7995 80.5739 50.8465C81.2089 51.0347 81.6322 51.3404 81.8438 51.7637C82.0555 52.1871 82.079 52.728 81.8909 53.363C81.7263 53.9509 81.444 54.3743 81.0913 54.68C80.5268 55.1269 79.9624 55.315 79.3039 55.2915ZM76.9991 54.3743C77.3989 54.6095 77.9163 54.8446 78.5513 55.0093C79.4685 55.268 80.2916 55.1269 80.9737 54.6095C81.3264 54.3508 81.5851 53.9274 81.7263 53.363C81.8909 52.775 81.8909 52.2576 81.6792 51.8578C81.4911 51.458 81.0913 51.1758 80.5033 51.0112C80.08 50.8936 79.6331 50.9171 79.1863 51.0817L79.0452 51.1287L79.2803 50.3526C79.3509 50.1175 79.3979 49.9293 79.445 49.7882C79.492 49.6471 79.5155 49.5295 79.5391 49.4589L79.5626 49.3178C79.6566 48.918 79.6566 48.7534 79.6331 48.6828H79.6096C79.1392 48.5417 78.6218 48.4947 78.1044 48.5417C78.1044 48.5417 78.1044 48.5888 78.0809 48.7064C78.1985 48.7534 78.3161 48.8475 78.3631 48.9415C78.4337 49.0591 78.4572 49.2002 78.4337 49.3414C78.3161 49.8352 78.0809 50.6584 77.7752 51.7167C77.5165 52.8221 77.2342 53.7158 76.9991 54.3743ZM78.9511 54.7035C78.857 54.7035 78.7394 54.68 78.6454 54.6565C78.4572 54.6095 78.2926 54.5389 78.175 54.4919L78.128 54.4683L78.1515 54.4213C78.2691 53.9745 78.4337 53.363 78.6454 52.6104L78.9511 51.5521H78.9981C79.2568 51.4815 79.4685 51.4345 79.6566 51.411C79.8448 51.3874 80.0094 51.411 80.174 51.458C80.7855 51.6226 80.9501 52.2106 80.6679 53.1984C80.4798 53.8334 80.1976 54.2802 79.7977 54.5154C79.492 54.633 79.2098 54.7035 78.9511 54.7035ZM78.2926 54.3743C78.4102 54.4213 78.5278 54.4683 78.6924 54.5154C79.0216 54.6095 79.3509 54.5624 79.6802 54.3508C80.0564 54.1391 80.3152 53.7158 80.5033 53.1278C80.762 52.2106 80.6444 51.7167 80.1035 51.5521C79.9624 51.505 79.8213 51.505 79.6566 51.5286C79.492 51.5521 79.3039 51.5991 79.0687 51.6461L78.7865 52.6104C78.5748 53.3395 78.4102 53.9509 78.2926 54.3743Z" fill="white"/>
<path d="M68.3678 46.9895C68.4619 46.7073 68.4149 46.5192 68.2502 46.4016C68.1326 46.331 67.968 46.237 67.7563 46.1429C67.7563 46.0253 67.7799 45.9312 67.8034 45.8842C67.8269 45.8372 67.8269 45.7901 67.8504 45.7431C68.4619 45.6255 69.1674 45.696 69.9671 45.9312C70.0847 45.9783 70.1787 46.0018 70.2493 46.0253C70.2963 46.2134 70.2728 46.5427 70.1552 47.0366C70.1082 47.2483 70.0376 47.5775 69.8965 48.0008C69.7554 48.4242 69.3321 49.7177 68.5795 51.8578C68.1562 51.7873 67.8034 51.7167 67.5447 51.6227C67.286 51.5286 67.0743 51.4345 66.9097 51.2934C67.2625 50.4467 67.5447 49.6706 67.7799 48.9651C67.968 48.3301 68.1797 47.6481 68.3678 46.9895ZM69.826 43.062C70.1082 42.9444 70.3669 42.9444 70.6021 43.0149C70.8608 43.0855 71.0254 43.2501 71.143 43.4383C71.2606 43.6499 71.2606 43.8851 71.1665 44.1673C71.0724 44.4496 70.8843 44.6377 70.6256 44.7788C70.3434 44.8964 70.0847 44.9199 69.8024 44.8259C69.5437 44.7318 69.3556 44.5907 69.238 44.379C69.1439 44.1673 69.1204 43.9322 69.2145 43.6499C69.3321 43.3912 69.5202 43.2031 69.826 43.062Z" fill="white"/>
<path d="M74.7413 48.9415C74.8118 48.6593 74.7648 48.4711 74.5767 48.3771C74.4591 48.3065 74.2944 48.236 74.0593 48.1419C74.0593 48.0243 74.0828 47.9302 74.0828 47.8832C74.1063 47.8361 74.1063 47.7891 74.1298 47.7421C74.7413 47.5774 75.4469 47.601 76.2465 47.8126C76.3641 47.8361 76.4817 47.8832 76.5287 47.8832C76.5992 48.0713 76.5757 48.4006 76.5052 48.8945C76.4817 49.1061 76.3876 49.5295 76.27 49.9528C76.1524 50.3761 75.7996 51.6932 75.1881 53.8804C74.7648 53.8333 74.412 53.7863 74.1298 53.7157C73.8476 53.6452 73.6359 53.5511 73.4713 53.4335C73.777 52.5633 74.0122 51.7637 74.2004 51.0582C74.3885 50.3996 74.5767 49.6235 74.7413 48.9415Z" fill="white"/>
<path d="M69.7554 51.9989C69.7789 51.9753 69.7789 51.9283 69.7789 51.9048C70.0847 51.9283 70.2728 51.9048 70.3434 51.8813C70.5315 51.7872 70.8137 51.505 71.143 51.0346C71.4722 50.5642 71.778 50.0704 72.0837 49.553C72.3659 49.0356 72.6952 48.6828 73.048 48.283C74.3415 46.8719 76.4346 47.8361 76.5522 47.9067C76.5992 48.0713 75.7291 48.4476 75.6115 48.7533C75.588 48.6828 74.7648 48.1889 74.2239 48.5417C73.4478 49.0591 72.4835 50.7289 72.0602 51.4579C71.6604 52.1635 70.6021 53.1513 69.6849 52.3046C69.6849 52.234 69.6849 52.1635 69.7084 52.0929C69.7319 52.0459 69.7319 52.0224 69.7554 51.9989Z" fill="white"/>
<path d="M66.4393 45.7428C66.1335 45.1784 65.5456 44.7786 64.6754 44.5905C65.7337 43.9084 67.333 42.5208 65.9924 40.9451C65.6161 40.4983 65.1928 40.3101 64.7695 40.2866C63.4054 40.0749 62.2765 41.5095 61.8062 42.6149C61.5004 43.3205 61.1947 44.3317 60.8419 45.884C60.4891 47.4127 60.1599 48.6826 59.8541 49.6469C60.4421 49.9762 61.2182 50.2584 62.1589 50.4936C63.4995 50.7993 64.6519 50.5641 65.5926 49.741C66.0865 49.3176 66.4158 48.7062 66.6039 47.9065C66.8156 47.0364 66.745 46.3073 66.4393 45.7428ZM62.7939 44.7786C62.841 44.4964 62.935 44.1906 63.0056 43.8614C63.0526 43.6732 63.0997 43.5086 63.1232 43.3675C63.1232 43.3675 63.9934 41.0392 64.8165 41.7447C65.428 42.3092 64.6284 43.3205 62.7939 44.7786ZM64.8635 47.6478C64.6519 48.518 64.2991 49.1295 63.7582 49.4823C63.2878 49.788 62.7939 49.8821 62.3236 49.7645C62.0649 49.6939 61.8532 49.6469 61.6651 49.5528C61.8062 48.9413 61.9943 48.0712 62.253 46.9893L62.5823 45.5547C62.935 45.4371 63.2408 45.343 63.476 45.3195C63.7111 45.2725 63.9463 45.296 64.158 45.343C64.9341 45.5547 65.1693 46.3073 64.8635 47.6478Z" fill="white"/>
<path d="M45.2258 43.2503C45.2728 43.2503 45.3434 43.2267 45.4374 43.2267C45.5315 43.2267 45.6021 43.2032 45.6491 43.2032C45.6961 43.1327 45.6961 43.0386 45.6961 42.968C45.6961 42.8975 45.6726 42.8269 45.6726 42.7564C44.9906 42.4271 44.4026 42.286 43.9558 42.333C43.65 42.4036 43.4149 42.6858 43.2502 43.1327C42.968 42.8975 42.6858 42.7329 42.4036 42.6388C42.1214 42.5447 41.8391 42.5212 41.5334 42.5447C41.2277 42.5682 40.9454 42.6153 40.7103 42.7093C40.4516 42.8034 40.2164 42.921 39.9812 43.0856C39.746 43.2503 39.5579 43.4619 39.3932 43.7206C39.0169 44.2615 38.8758 44.9671 38.9464 45.8373C38.9934 46.3547 39.111 46.8015 39.3462 47.1778C39.5579 47.5776 39.8401 47.8834 40.1928 48.1186C40.8984 48.5889 41.698 48.7771 42.6152 48.7065C42.8739 48.683 43.2267 48.6124 43.6971 48.5184L43.7676 49.8589V50.0235C43.7676 50.0471 43.7676 50.0706 43.7912 50.0941C43.8147 50.4939 43.7912 51.317 43.1562 51.6933C42.7799 51.9285 42.0038 52.2343 41.2277 51.8815C40.5927 51.5757 41.1571 50.1882 41.1571 50.1882C41.1571 50.1882 41.3217 49.5767 40.2399 49.9295C39.1816 50.2822 39.2521 52.54 41.5569 52.8928C44.3086 53.175 45.1317 52.0226 45.3904 51.3406C45.4374 51.27 45.461 51.1524 45.4845 50.9643C45.4845 50.9172 45.4845 50.8702 45.4845 50.8702C45.508 50.635 45.508 50.3998 45.4845 50.1411L45.1552 46.6369C45.0847 45.8373 45.0141 44.8495 44.9436 43.6736C44.92 43.4384 45.0141 43.2973 45.2258 43.2503ZM42.8034 47.8598C42.2389 47.9069 41.7686 47.7658 41.3688 47.4365C40.969 47.1073 40.7573 46.5899 40.6867 45.8608C40.6397 45.3669 40.6632 44.9436 40.7573 44.6378C40.8514 44.3086 40.969 44.0734 41.0865 43.9088C41.3452 43.603 41.6275 43.4384 41.9332 43.4149C42.2389 43.3914 42.4741 43.4149 42.6388 43.4854C42.8034 43.556 43.0151 43.7206 43.2738 43.9793C43.3443 44.4732 43.4149 45.0847 43.4619 45.8138C43.5325 46.5428 43.556 47.1778 43.603 47.7423C43.3443 47.7893 43.0621 47.8363 42.8034 47.8598Z" fill="white"/>
<path d="M32.5259 43.8853C32.4553 43.8853 32.3612 43.9088 32.2201 43.9088C31.4205 44.0264 30.762 44.2615 30.2446 44.6378C30.2446 44.6849 30.2446 44.7554 30.2446 44.8025C30.2446 44.8495 30.2681 44.9436 30.3151 45.0377C30.5503 45.0141 30.7385 45.0377 30.8796 45.0612C31.0913 45.0847 31.2088 45.2493 31.2559 45.5315C31.35 46.096 31.444 46.7545 31.5616 47.5306C31.6557 48.3067 31.7498 49.1534 31.7968 50.0941C32.0085 50.1411 32.2436 50.1411 32.5259 50.1176C32.8081 50.0706 33.1609 50 33.5607 49.8589C33.2785 47.7423 32.714 44.1204 32.5259 43.8853Z" fill="white"/>
<path d="M35.889 49.3886C35.9595 49.3886 36.0536 49.3886 36.1947 49.365C37.0179 49.2945 37.6764 49.0828 38.1938 48.73C38.1938 48.683 38.2173 48.636 38.1938 48.5654C38.1938 48.4949 38.1703 48.4243 38.1468 48.3302C37.9116 48.3302 37.7234 48.3067 37.5823 48.2832C37.3706 48.2597 37.2531 48.0951 37.2295 47.7893C37.159 47.2249 37.0884 46.5428 37.0179 45.7667C36.9473 44.9906 36.9003 44.1205 36.9003 43.2032C36.6886 43.1562 36.4534 43.1327 36.1712 43.1562C35.889 43.1797 35.5362 43.2503 35.1364 43.3679C35.301 45.508 35.7244 49.1534 35.889 49.3886Z" fill="white"/>
<path d="M36.1011 45.9022L32.4479 46.4387L32.5504 47.1368L36.2036 46.6003L36.1011 45.9022Z" fill="white"/>
<g opacity="0.5">
<path d="M33.984 36.1004C31.2088 24.6235 31.9614 15.8746 36.2418 10.0656C40.7573 3.95084 47.46 3.48047 47.7422 3.48047L47.8128 4.65639L47.7893 4.06843L47.8363 4.65639C47.7658 4.65639 41.3688 5.12675 37.1825 10.7947C33.1138 16.298 32.4318 24.741 35.1129 35.8417L33.984 36.1004Z" fill="#EC1C2E"/>
</g>
<path d="M39.6651 56.4619L38.5605 56.8655L42.0474 66.4087L43.152 66.0051L39.6651 56.4619Z" fill="#F15A29"/>
<g opacity="0.5">
<path d="M65.9925 36.4532L64.8636 36.1239C67.7093 26.011 67.286 17.9678 63.6171 12.2528C59.4779 5.80878 52.587 4.65639 52.5165 4.63287L52.7046 3.48047C53.0104 3.52751 60.207 4.72694 64.6284 11.6178C68.4619 17.6385 68.9323 25.9875 65.9925 36.4532Z" fill="#EC1C2E"/>
</g>
<path d="M57.4553 66.298L56.2559 66.1804L58.2314 56.2322L59.3838 56.4674L57.4553 66.298Z" fill="#F15A29"/>
<path d="M20.3904 60.6302L14.9106 48.4712L7.47883 53.41L15.334 55.9735L12.4882 65.1222L20.3904 60.6302Z" fill="#BE1E2D"/>
<path d="M81.1148 61.3357L87.112 49.4119L94.3321 54.6565L86.3829 56.8907L88.8288 66.1334L81.1148 61.3357Z" fill="#BE1E2D"/>
<path d="M35.5362 7.54932C35.5362 7.54932 18.6265 12.6998 20.6491 33.7488L25.7056 31.6321C25.7291 31.6321 23.2126 16.6509 35.5362 7.54932Z" fill="#FBB040"/>
<path d="M30.1976 58.0902L31.4205 59.76C31.4205 59.76 39.0875 57.9961 48.6595 57.7845C54.7507 57.6669 61.7592 58.49 67.6152 59.7835C68.4149 58.9369 68.7441 58.396 69.238 57.808C51.9285 53.8099 36.1712 56.7026 30.1976 58.0902Z" fill="#F15A29"/>
<path d="M61.9944 7.54932C61.9944 7.54932 75.588 14.4402 73.6124 31.2323C77.2578 32.0084 78.4807 32.1965 78.4807 32.1965C78.4807 32.1965 80.3857 12.935 61.9944 7.54932Z" fill="#FBB040"/>
<path d="M53.5513 66.3451C52.587 63.5229 51.0113 61.7119 48.2832 61.6884C45.6021 61.6649 44.0028 63.8051 42.968 66.298C42.2625 66.0158 41.7451 67.0976 41.5569 67.8502C41.2512 69.0262 41.9802 69.3084 42.2625 69.3789C42.5447 71.6837 44.9906 73.5652 47.4365 73.918C47.5541 74.4118 47.46 74.8352 47.46 74.8352C47.46 74.8352 48.683 75.0468 48.9182 74.7646C48.8006 74.3178 48.8006 74.0356 48.8006 73.918C51.2935 73.6828 53.7159 71.8484 54.0922 69.4965C54.7977 69.473 54.9388 68.3206 54.8918 67.5915C54.7977 66.3921 53.9511 66.3215 53.5513 66.3451Z" fill="#FCD39C"/>
<path d="M40.4751 75.0235C40.4751 74.8824 40.4751 74.7648 40.4751 74.6002C40.5221 71.143 39.793 69.0734 36.3358 69.0263C33.6783 69.0028 31.8438 70.8843 30.9031 72.8833C30.4327 73.8476 30.1975 75.3763 30.1975 75.3763C30.1035 78.3396 33.5607 80.2211 36.6416 79.2803L37.6764 80.6679C37.6764 80.6679 39.1816 80.9266 39.5814 80.1035C39.4873 79.445 39.0405 78.8335 38.8288 78.5513C39.3932 78.3161 39.746 78.0809 40.0047 77.7516C40.4986 77.8457 41.1101 77.7046 41.4158 76.8109C41.7921 75.635 40.9925 75.1881 40.4751 75.0235Z" fill="#FCD39C"/>
<path d="M64.5108 77.5869C66.2982 77.4928 68.1326 75.2585 68.1326 75.2585L69.3556 76.2463C69.3556 76.2463 67.7328 79.9152 63.0527 81.5379C60.5127 82.4316 58.0433 82.1024 58.0433 82.1024L58.4901 77.822C58.4666 77.822 61.4299 79.5859 64.5108 77.5869Z" fill="#BE1E2D"/>
<path d="M41.9567 81.7966L43.9558 92.7327L55.4327 92.8738L58.0198 82.1024L41.9567 81.7966ZM54.7742 92.0506L44.6613 91.933L42.968 82.6433L45.2023 82.6668C45.2258 82.7609 56.7262 82.8079 56.7262 82.8079L54.7742 92.0506Z" fill="#F15A29"/>
<path d="M42.8269 82.0554L44.6613 91.9096L54.7272 92.5916L57.1966 82.4082L42.8269 82.0554Z" fill="#F15A29"/>
<path d="M61.2418 68.062C60.7244 68.062 59.6425 67.9679 59.1721 68.0855C59.1721 68.109 59.1957 68.1561 59.1957 68.1796C60.1129 68.2031 60.0894 69.6377 59.1721 69.6377C58.7723 69.6377 58.5372 69.3555 58.4901 69.0498C57.0555 68.9087 56.4205 70.6725 56.397 71.8484C56.397 72.1542 56.5381 72.7421 56.3499 72.8597C56.1383 73.5653 55.8325 73.0949 55.8561 73.824C55.8561 73.9416 56.9379 74.4355 57.2436 75.3997C57.3848 75.823 56.6322 76.6932 56.397 76.9754C55.9266 77.5869 56.1383 79.586 57.9962 79.7271C58.8899 80.0799 59.1251 78.904 59.5249 78.4571C62.8645 79.3743 65.9925 77.7515 66.016 74.2944C66.0865 70.7901 64.699 68.109 61.2418 68.062Z" fill="#FCD39C"/>
<path d="M63.5701 74.8115C63.6171 74.9997 63.476 75.3054 63.2643 75.423C63.0762 75.5406 62.7704 75.6111 62.3941 75.5641C62.3941 75.6347 62.3706 75.7287 62.4882 75.7523C63.0291 75.8698 63.3819 75.6582 63.5466 75.4465C63.8288 75.1643 63.5701 74.8115 63.5701 74.8115Z" fill="#F7941D"/>
<path d="M59.8777 73.0715C59.4544 73.0009 58.8429 73.1185 58.6547 73.5654C58.6077 73.6359 58.7488 73.73 58.7959 73.6594C59.031 73.2832 59.4779 73.2596 59.8777 73.2361C59.9483 73.1891 59.9483 73.0715 59.8777 73.0715Z" fill="#F15A29"/>
<path d="M64.9341 72.2954C64.5579 72.1308 63.8758 72.0602 63.5936 72.46C63.5466 72.5306 63.6171 72.6247 63.6877 72.5776C64.064 72.3424 64.4403 72.366 64.8636 72.46C64.9577 72.46 65.0047 72.3424 64.9341 72.2954Z" fill="#F15A29"/>
<path d="M32.6435 75.6113C32.6435 75.6348 32.6435 75.6584 32.6435 75.6584C32.6905 75.9171 33.1138 76.505 33.6312 76.3404C33.7488 76.3169 33.8899 76.2698 34.0546 76.0111C34.0781 76.6226 33.302 76.9989 32.6905 76.411C32.5024 76.1993 32.4318 75.7289 32.6435 75.6113Z" fill="#F7941D"/>
<path d="M36.6416 73.9417C37.0884 73.8476 37.7469 73.9181 38.0056 74.365C38.0527 74.4591 37.9351 74.5531 37.8645 74.4591C37.5823 74.0828 37.1119 74.0828 36.6651 74.0828C36.571 74.0828 36.571 73.9417 36.6416 73.9417Z" fill="#FDD700"/>
<path d="M31.7027 72.7658C32.079 72.6717 32.7375 72.7658 32.9257 73.1891C32.9492 73.2596 32.8786 73.3302 32.8081 73.2832C32.5023 72.9774 32.1261 72.9304 31.7262 72.9304C31.6322 72.9069 31.6087 72.7893 31.7027 72.7658Z" fill="#FDD700"/>
<path d="M51.6463 66.8861C51.1994 66.4863 50.4468 66.3217 49.9059 66.5569C49.7648 66.6274 49.8589 66.8626 50 66.8156C50.5409 66.6745 50.9878 66.8391 51.4817 67.0743C51.5992 67.1448 51.7639 66.9802 51.6463 66.8861Z" fill="#201A0E"/>
<path d="M36.9708 75.3998C37.0179 75.5644 36.9473 75.7291 36.7592 75.7996C36.5945 75.8702 36.4064 75.7761 36.3594 75.635C36.3123 75.4704 36.3829 75.3057 36.571 75.2352C36.7357 75.1646 36.9238 75.2587 36.9708 75.3998Z" fill="#201A0E"/>
<path d="M32.1731 74.2943C32.2201 74.459 32.1496 74.6236 31.9614 74.6941C31.7968 74.7647 31.6087 74.6706 31.5616 74.5295C31.5146 74.3649 31.5851 74.2003 31.7733 74.1297C31.9379 74.0592 32.1261 74.1532 32.1731 74.2943Z" fill="#201A0E"/>
<path d="M44.5202 67.0741C44.8965 66.6273 45.6491 66.3686 46.2135 66.5567C46.3547 66.6037 46.3076 66.8389 46.143 66.8154C45.5785 66.7449 45.1552 66.9565 44.7084 67.2387C44.5908 67.3093 44.4026 67.1917 44.5202 67.0741Z" fill="#201A0E"/>
<path d="M51.3876 70.0141C51.3405 69.967 51.2935 69.967 51.2465 69.967C51.0818 69.967 51.0818 70.2022 51.2465 70.2022C51.2935 70.2022 51.3405 70.2022 51.3876 70.1552C51.4346 70.1317 51.4346 70.0611 51.3876 70.0141Z" fill="#F7941D"/>
<path d="M52.3283 69.873H52.3048C52.1872 69.8965 52.1872 70.0846 52.3048 70.0846H52.3283C52.5165 70.1317 52.5165 69.8495 52.3283 69.873Z" fill="#F7941D"/>
<path d="M52.0226 70.4844C51.8815 70.4844 51.8579 70.7196 52.0226 70.7196C52.1872 70.7196 52.1872 70.4844 52.0226 70.4844Z" fill="#F7941D"/>
<path d="M45.1082 69.6613C45.0376 69.6378 44.9436 69.6378 44.92 69.7083C44.873 69.8024 44.9436 69.8729 45.0376 69.8965C45.0847 69.92 45.1317 69.8729 45.1552 69.8494C45.2023 69.8024 45.2023 69.7083 45.1082 69.6613Z" fill="#F7941D"/>
<path d="M44.6378 70.4373C44.5437 70.4373 44.5437 70.6019 44.6378 70.6019C44.7319 70.6019 44.7319 70.4373 44.6378 70.4373Z" fill="#F7941D"/>
<path d="M40.9454 82.4553C40.969 82.3142 40.969 81.1853 41.2041 81.0677C41.4393 80.9736 41.7215 81.9614 41.7215 81.9614C41.7215 81.9614 41.9567 81.6086 42.0038 81.1147C42.0508 80.7149 41.9097 80.1975 41.9567 79.9858C42.0743 79.539 43.5089 80.3857 43.3443 81.7497C43.2032 83.1373 42.1214 83.6782 42.1214 83.6782L40.9454 82.4553Z" fill="#FCD39C"/>
<path d="M68.1326 75.2587C68.1326 74.9765 68.2502 73.4713 68.7206 72.8363C68.7441 72.7892 68.8382 72.8128 68.8382 72.9539C68.8617 73.2126 68.8382 73.6359 68.8147 73.8946C68.7676 74.2944 68.8852 74.2003 68.8852 74.2003C68.8852 74.2003 69.4967 73.777 69.3556 71.825C69.3321 71.5663 69.7084 71.3546 70.1317 71.7309C70.5786 72.1072 70.8372 73.2596 70.7432 74.1063C70.5785 75.729 69.3556 76.27 69.3556 76.27L68.1326 75.2587Z" fill="#FCD39C"/>
<path d="M56.397 76.9519C56.397 76.9519 51.6933 79.0686 50.0941 81.9613C57.9257 82.1259 58.0433 82.1259 58.0433 82.1259L59.5484 79.4213C59.5249 79.3978 55.6209 78.8334 56.397 76.9519Z" fill="#BE1E2D"/>
<path d="M61.4064 77.0459L61.5945 76.8577C61.6181 76.8577 62.3001 77.0929 63.1232 76.8577C63.6171 76.7166 63.8758 76.4814 63.8758 76.4814C63.7817 76.599 63.6642 76.9753 62.6999 77.187C61.8532 77.3751 61.4064 77.0459 61.4064 77.0459Z" fill="#BE1E2D"/>
<path d="M34.0781 78.4571C33.3725 78.4571 32.8786 78.1749 32.8551 78.1749C32.8551 78.1749 34.3838 78.6452 35.842 77.3752L36.0066 77.681C35.3246 78.2925 34.6425 78.4571 34.0781 78.4571Z" fill="#BE1E2D"/>
<g opacity="0.34">
<path d="M61.2418 75.6349C61.3358 75.9172 61.0771 76.2699 60.6538 76.411C60.2305 76.5522 59.8071 76.4111 59.7131 76.1288C59.619 75.8466 59.8777 75.4938 60.301 75.3527C60.7244 75.2116 61.1477 75.3527 61.2418 75.6349Z" fill="#F15A29"/>
</g>
<path d="M48.1891 72.2718C45.8137 72.2718 45.461 70.4844 45.461 70.4844C45.461 70.4844 46.0254 72.0366 48.1891 72.0366C50.3528 72.0366 50.8937 70.6255 50.8937 70.6255C50.8937 70.649 50.5644 72.2718 48.1891 72.2718Z" fill="#BE1E2D"/>
<path d="M55.8561 81.9848C55.6679 82.2906 56.0207 82.6198 56.5381 83.3254C57.0555 84.0309 57.5023 84.4072 57.8316 84.1956C58.2549 83.8898 58.1844 82.1495 58.1844 82.1495C58.1844 82.1495 56.1853 81.4439 55.8561 81.9848Z" fill="#FCD39C"/>
<path d="M53.3396 66.5099L53.7629 66.3923C53.5042 62.3001 48.9652 61.4064 48.1656 61.524C48.1185 61.524 47.9069 61.5946 47.8598 61.5946C44.3556 61.7827 42.8975 66.2277 42.8975 66.2512L43.2973 66.4394C43.4384 66.1571 43.6736 65.4045 44.4732 64.6755C44.1675 65.3105 44.1674 66.3218 44.1674 66.3218L44.7084 65.9925C44.7084 65.969 45.2493 64.699 46.0724 63.8288C45.8843 64.699 46.0489 65.6162 46.0489 65.6868L46.2841 65.7103C46.2841 65.6868 46.2841 64.8166 47.1308 63.8759C47.0367 64.6284 47.5541 65.7808 47.5541 65.8749H47.7893C47.7893 65.8514 47.7658 64.8871 48.4478 63.7347C48.683 63.9934 49.2474 65.2399 49.2474 65.9455L49.6943 65.969C49.7648 65.287 49.8824 65.1223 49.6943 64.2757C50.1881 64.699 50.7291 65.381 50.9878 65.9925H51.317C51.1759 65.0047 51.1994 65.0518 51.0348 64.4873C51.3876 64.8166 51.7404 64.9577 52.2107 65.9455L52.54 65.9219C52.4224 65.1458 52.4224 64.9577 51.8815 64.1581C52.5165 64.652 53.0574 65.7103 53.3396 66.5099ZM48.1656 61.6181C48.142 61.6181 48.142 61.6416 48.1656 61.6181V61.6181Z" fill="#201A0E"/>
<path d="M70.461 68.1091C70.5315 67.8739 70.461 67.5917 70.2258 67.4741C70.1552 67.4506 70.0847 67.4977 70.0611 67.5682C70.0611 67.5917 70.0611 67.5917 70.0611 67.6152C69.92 67.4506 69.7084 67.7328 69.6613 67.8739C69.6378 67.968 69.6378 68.0151 69.6613 68.0856C69.6143 67.9915 69.5437 67.921 69.4497 67.8739C69.4026 67.8504 69.3321 67.8739 69.3086 67.921C69.1439 68.1562 69.2145 68.4384 69.4967 68.5089C69.4967 68.5795 69.4967 68.6265 69.4732 68.6971C69.3556 68.7441 69.2145 68.7676 69.0734 68.7441C69.1204 68.6736 69.1439 68.603 69.1675 68.5325C69.191 68.4854 69.1674 68.4384 69.1204 68.3913C68.9323 68.2738 68.8382 68.2502 68.6265 68.2738C68.556 68.2738 68.5089 68.3443 68.5325 68.4149C68.5325 68.4384 68.5325 68.4384 68.556 68.4619C68.5089 68.4854 68.4619 68.5089 68.4384 68.556C68.3913 68.603 68.3913 68.6736 68.3678 68.7441C68.2502 68.6736 68.1562 68.6971 68.1091 68.7912C67.968 68.6501 67.7328 68.5795 67.5917 68.5795C67.4976 68.5795 67.4506 68.603 67.4271 68.6501C67.3565 68.5795 67.2389 68.5325 67.1449 68.556C66.9802 68.5795 66.8627 68.7206 66.7921 68.8852C66.698 68.6736 66.4864 68.5325 66.2512 68.5795C66.1806 68.603 66.1336 68.6265 66.0865 68.6501C66.0395 68.4619 65.9219 68.3208 65.6867 68.2502C65.5691 68.2032 65.4516 68.2502 65.381 68.3208C65.2399 67.8504 64.8871 67.4977 64.3932 67.6623C64.158 66.9803 63.3114 67.3801 63.0762 67.8504C63.0292 67.968 62.9821 68.0621 62.9586 68.1562C62.841 68.0386 62.7234 67.9445 62.6058 67.8739C62.6058 67.8504 62.6058 67.8269 62.6058 67.8034C62.6529 67.4977 62.7705 67.2154 62.794 66.9097C62.794 66.7686 62.6294 66.7451 62.5588 66.8627C62.4177 67.1449 62.206 67.4036 61.9944 67.6152C61.9708 67.5447 61.9238 67.4506 61.8768 67.3565C61.8062 67.239 61.6886 67.1919 61.5475 67.1684C61.4534 67.0743 61.3123 66.9803 61.1712 66.9332C61.0301 66.8862 60.889 66.8627 60.7008 66.8862C60.6538 66.7215 60.5362 66.5569 60.3481 66.4628C59.9953 66.2512 59.572 66.698 59.3838 66.9332C59.3603 66.9567 59.3603 66.9802 59.3368 67.0038C59.1486 67.0038 58.9605 67.0508 58.7723 67.1684C58.6547 67.239 58.5842 67.333 58.5372 67.4506C58.3725 67.333 58.1844 67.3095 57.9962 67.4271C57.8316 67.5212 57.7375 67.7093 57.667 67.8975C57.2201 67.7564 56.6792 67.7564 56.2559 67.921C55.9737 68.0386 55.809 68.2267 55.762 68.4384C55.5268 68.603 55.2916 68.8147 55.08 69.0969C54.8448 69.4497 54.492 70.0612 54.5861 70.555C54.4685 70.6491 54.3509 70.7667 54.2803 70.8843C54.1627 70.8608 54.0216 70.8373 53.904 70.8843C53.3866 71.0019 53.175 71.4487 53.1985 71.9191C52.9633 72.0132 52.7516 72.1778 52.6341 72.3895C52.4224 72.8363 52.5635 73.2832 52.8457 73.6359C52.7281 74.1769 53.0809 74.6002 53.6218 74.6943C53.5513 74.8824 53.6453 75.1646 53.8335 75.3293C53.857 75.3528 53.904 75.3763 53.9276 75.3998C53.9276 75.4469 53.9276 75.5174 53.9276 75.5644C53.904 75.588 53.8805 75.588 53.8805 75.6115C53.8335 75.4704 53.7394 75.3528 53.5748 75.3528C53.2455 75.3763 53.175 75.7291 53.1985 76.0113C53.1985 76.1054 53.222 76.1759 53.269 76.2465C53.269 76.27 53.2455 76.2935 53.2455 76.2935C53.1985 76.2465 53.1515 76.223 53.0809 76.1994C53.0574 76.1054 52.9633 76.0348 52.7987 75.9878C52.54 75.9407 52.3283 76.1759 52.2578 76.4581C52.0931 76.2935 51.8109 76.27 51.7404 76.4817C51.6698 76.4581 51.5992 76.4111 51.5287 76.3876H51.5052C51.5052 76.3405 51.5052 76.2935 51.4581 76.2465C51.317 76.0113 50.9643 75.7291 50.682 75.9172C50.6585 75.9407 50.635 75.9643 50.588 75.9878C50.2352 75.4939 49.5061 75.8231 49.9059 76.4346C50.0706 76.6698 50.2822 76.7874 50.5174 76.8109C50.7056 77.5165 51.1289 78.222 51.8815 77.7046C51.952 77.6576 52.0461 77.5635 52.1637 77.4694C52.2107 77.4459 52.2342 77.4459 52.2813 77.4224C52.3048 77.4224 52.3048 77.4459 52.3283 77.4459C52.4459 77.4929 52.587 77.5165 52.7046 77.54C53.0809 77.587 53.3866 77.4459 53.6218 77.2342H53.6453C53.8805 77.2578 54.1392 77.1872 54.3274 77.1402C54.7037 77.0226 55.3622 77.587 55.5974 77.3048C56.0912 77.4459 56.3264 77.0461 56.8438 77.0461C56.8674 77.0461 56.9144 76.7168 56.9144 76.7404C56.9849 77.2107 57.1966 76.317 57.2201 76.317C57.714 76.5757 58.4431 75.8232 58.1138 75.3057C58.7723 74.6472 57.9022 73.7771 57.5729 73.7771C57.5259 73.7065 57.3377 73.5419 57.3848 73.5419C57.9492 73.5184 57.9492 72.8598 57.6905 72.6952C57.6435 72.6717 57.667 72.6011 57.6199 72.5776C57.7375 72.5541 57.8316 72.5306 57.9022 72.46C58.0198 72.366 58.1373 72.2013 58.1844 72.0367C58.349 72.1543 58.5607 72.2484 58.7488 72.2719C59.3603 72.3659 59.7366 71.6604 59.666 71.1195C59.6896 71.0724 59.7131 71.0254 59.7131 70.9549C59.9247 70.8608 60.0894 70.6726 60.1834 70.4139C60.207 70.4139 60.207 70.4139 60.2305 70.4139C60.3716 70.6021 60.5362 70.7432 60.7479 70.7432C60.8184 70.7432 60.8655 70.6726 60.842 70.6021C60.8184 70.461 60.7714 70.3669 60.6773 70.2728C60.9831 70.1317 61.2418 69.8965 61.4064 69.6143C61.4064 69.5908 61.4299 69.5673 61.4299 69.5673C61.6416 70.0141 62.1119 70.2728 62.3471 69.9671C62.4647 69.9671 62.794 69.6613 62.9116 69.6613V70.1082C63.1232 70.2258 63.5701 70.4139 63.8523 70.4845C63.8993 70.508 63.7817 69.9906 63.8288 69.9906C63.8993 70.0141 64.0169 70.0141 64.111 70.0141C64.2521 70.0847 64.3932 70.1082 64.5343 70.1317C64.6049 70.1552 64.699 70.1787 64.793 70.2023C64.8401 70.2963 64.8871 70.3904 64.9577 70.461C64.9342 70.5786 64.9577 70.6961 65.0282 70.7667C65.1223 70.9313 65.2399 71.0019 65.334 71.0254C65.428 71.0724 65.5221 71.0724 65.6162 70.9784C65.6632 70.9313 65.7103 70.8843 65.7338 70.8373C65.7338 70.8373 65.7338 70.8608 65.7573 70.8608C65.8043 70.9548 65.9454 70.9078 65.969 70.8137C65.969 70.7432 65.969 70.6726 65.9454 70.6021C65.969 70.5786 66.016 70.5786 66.0395 70.555C66.1336 70.6491 66.2512 70.7432 66.3923 70.7667C66.651 70.8373 67.0508 70.5315 67.286 70.1787C67.4271 70.1317 67.5682 70.0612 67.6858 69.9671C67.8504 69.92 68.0386 69.7554 68.1797 69.5908C68.2738 69.6143 68.3913 69.5908 68.5089 69.5202C68.5795 69.5908 68.6736 69.6613 68.7441 69.6849C69.191 69.8495 69.5202 69.4026 69.6143 68.9323C69.7084 68.8617 69.8024 68.7676 69.873 68.6501C69.9906 68.6501 70.1082 68.5795 70.1787 68.5089C70.2258 68.5089 70.2963 68.4854 70.3434 68.4854C70.6256 68.2973 70.6021 68.0856 70.461 68.1091ZM54.9389 69.9671C55.0564 69.5908 55.2681 69.2615 55.5268 68.9558C55.6209 68.8382 55.6914 68.7676 55.809 68.6971C55.809 68.7206 55.809 68.7441 55.809 68.7676C55.6444 69.0028 55.5503 69.2851 55.5268 69.5202C55.5268 69.6378 55.5268 69.7554 55.5268 69.8965C55.4798 69.9671 55.4092 70.0141 55.3622 70.0847C55.3151 70.1317 55.2446 70.1787 55.1976 70.2258C55.08 70.2728 54.9624 70.3199 54.8683 70.3904C54.8918 70.2258 54.9153 70.0847 54.9389 69.9671ZM55.2211 70.8843C55.1976 70.8843 55.1976 70.9078 55.174 70.9078C55.127 70.8843 55.08 70.8608 55.0564 70.8137C55.08 70.7432 55.127 70.6961 55.1505 70.6256C55.1505 70.7197 55.174 70.8137 55.2211 70.8843ZM54.3509 71.8956C54.4685 71.778 54.5861 71.6604 54.7037 71.5663C54.7037 71.731 54.7272 71.8721 54.7742 72.0367C54.7037 72.0367 54.6566 72.0132 54.5861 72.0132C54.5155 71.9661 54.445 71.9191 54.3509 71.8956ZM54.7272 70.7667C54.7507 70.7902 54.7742 70.8373 54.7977 70.8608C54.7977 70.8608 54.7977 70.8608 54.8213 70.8843C54.7977 70.9548 54.7742 71.0254 54.7742 71.096C54.7272 71.0489 54.6566 71.0019 54.5861 70.9549C54.6096 70.8843 54.6566 70.8373 54.7272 70.7667ZM54.445 71.143C54.5155 71.19 54.5861 71.2606 54.6566 71.3311C54.539 71.4487 54.4214 71.5663 54.3274 71.6604C54.3274 71.4958 54.3744 71.3076 54.445 71.143ZM53.4572 71.6369C53.4807 71.3311 53.8805 71.0489 54.1863 71.0724C54.2098 71.0724 54.2098 71.0724 54.2333 71.0724C54.1157 71.3311 54.0922 71.5898 54.1157 71.825C53.9746 71.8015 53.857 71.778 53.7865 71.778C53.6924 71.778 53.5748 71.778 53.4807 71.8015C53.4572 71.7545 53.4572 71.6839 53.4572 71.6369ZM53.904 72.6011C53.9276 72.5306 53.9511 72.4835 53.9746 72.413C54.0687 72.3424 54.1863 72.3189 54.2803 72.2719C54.3039 72.3189 54.3274 72.3424 54.3744 72.3895C54.3509 72.46 54.3039 72.5306 54.2333 72.5776C54.1392 72.5776 54.0216 72.5776 53.904 72.6011ZM53.6453 72.3895C53.5748 72.2954 53.5278 72.2013 53.5042 72.0837C53.6689 72.0367 53.857 72.0367 53.9981 72.0602C53.9511 72.1072 53.9276 72.1543 53.904 72.2013C53.81 72.2484 53.7394 72.3189 53.6453 72.3895ZM53.2926 72.1543C53.3161 72.2954 53.3866 72.413 53.4572 72.5306C53.4572 72.5541 53.4807 72.5541 53.4807 72.5776C53.3396 72.7422 53.222 72.9304 53.1515 73.1185C53.1044 73.1656 53.0574 73.2361 53.0339 73.2832C53.0103 73.3067 53.0103 73.3302 53.0103 73.3537C52.9633 73.2832 52.9163 73.2126 52.8928 73.1185C52.6811 72.6247 52.9163 72.2954 53.2926 72.1543ZM53.7159 74.412C53.6218 74.412 53.5513 74.3885 53.4572 74.365C53.1515 74.2474 53.0574 74.0358 53.1044 73.8006C53.1279 73.8241 53.175 73.8711 53.222 73.8946C53.2455 73.9417 53.2926 73.9887 53.3396 74.0358C53.4572 74.1533 53.6218 74.2239 53.7629 74.2474C53.7159 74.2945 53.7159 74.365 53.7159 74.412ZM53.7394 73.9652C53.5983 73.8946 53.4807 73.8241 53.3631 73.73C53.2926 73.5889 53.3161 73.4008 53.3631 73.2361C53.4807 73.095 53.5983 72.9774 53.7159 72.9069C53.7629 73.0245 53.904 73.0715 54.1392 73.0715C54.1627 73.0715 54.1863 73.0715 54.2098 73.0715C54.1863 73.095 54.1863 73.1185 54.1627 73.1421C54.1157 73.2832 54.0687 73.4008 54.0687 73.5184C53.904 73.6595 53.81 73.8006 53.8335 73.9887C53.8335 73.9887 53.8335 73.9887 53.8335 74.0122C53.7865 73.9652 53.7629 73.9652 53.7394 73.9652ZM55.174 71.6839L55.1505 71.7074C55.1035 71.5663 55.0329 71.4487 54.9624 71.3076L54.9859 71.2841C55.0329 71.2371 55.1035 71.19 55.1976 71.1195C55.2681 71.143 55.3387 71.1665 55.4092 71.19C55.3622 71.2606 55.3151 71.3311 55.2681 71.4017C55.2211 71.4723 55.1976 71.5663 55.174 71.6839ZM59.2897 67.2625C59.2662 67.3565 59.2662 67.4506 59.2662 67.5447C59.1016 67.5447 58.937 67.5682 58.7959 67.6152C58.8664 67.3565 59.0781 67.286 59.2897 67.2625ZM58.4901 67.7564C58.3725 67.8269 58.302 67.921 58.2314 68.0151C58.1609 67.968 58.0668 67.9445 57.9962 67.921C58.0903 67.5682 58.302 67.5917 58.4901 67.7564Z" fill="#F15A29"/>
<path d="M56.5381 71.4722C57.1731 71.8485 58.3255 71.6839 58.3255 71.6839C58.3255 71.6839 58.8194 72.3424 59.0075 72.9303C59.8777 72.2953 60.4421 71.1429 60.4421 71.1429L58.7959 70.6961C58.7959 70.6961 58.1374 69.6143 57.9962 69.332C57.5964 69.8024 57.1496 70.7431 56.5381 71.4722Z" fill="#FBEF4D"/>
<path d="M40.9925 74.3884C41.016 74.459 41.063 74.5295 41.0865 74.5766C41.0865 74.5766 41.0865 74.5766 41.0865 74.6001C41.0865 74.6706 41.1101 74.7412 41.1101 74.8353C41.1571 74.7412 41.2277 74.6236 41.3217 74.553C41.3217 74.5295 41.3217 74.506 41.2982 74.459C41.3217 74.2943 41.3217 74.1297 41.2982 73.9886C41.2982 73.9651 41.2982 73.9416 41.2982 73.918C41.3688 73.871 41.4628 73.824 41.5099 73.7534C41.5334 73.7769 41.5334 73.7769 41.5569 73.8005C41.5569 73.824 41.5804 73.8475 41.5804 73.871C41.5804 73.824 41.5804 73.7769 41.5804 73.7299C41.8627 73.918 42.1919 73.918 42.4271 73.5653C42.5917 73.3301 42.4976 73.0949 42.3095 72.9303C42.4036 72.7892 42.4741 72.6481 42.5212 72.4599C42.5682 72.2247 42.4741 71.9425 42.3801 71.6838C42.5447 71.4957 42.5682 71.2134 42.333 70.9077C42.2389 70.7901 42.0038 70.696 41.7686 70.649C41.7451 70.602 41.7451 70.5784 41.7215 70.5549C41.9097 70.3903 41.8627 70.014 41.698 69.7318C41.7451 69.6847 41.7451 69.6377 41.7215 69.5907C41.651 69.426 41.5569 68.9322 41.3688 68.6499C41.2747 68.3912 41.063 68.156 40.8514 68.0385C40.7338 67.9914 40.6162 67.9679 40.5221 68.0149C40.5456 67.9444 40.5456 67.8738 40.5456 67.8033C40.5927 67.7798 40.6397 67.7562 40.7103 67.7327C40.7573 67.7327 40.8043 67.6857 40.8278 67.6151C40.8984 67.0037 39.7695 66.6038 38.8523 66.7214C38.7817 66.6038 38.6642 66.5098 38.5466 66.4392C38.1703 66.2981 37.9116 66.5803 37.6764 66.8625C37.5118 66.4157 37.206 66.0159 36.8062 66.157C36.7827 66.1805 36.7357 66.1805 36.7121 66.204C36.3829 66.1805 36.0066 66.3216 35.8655 66.6038C35.7949 66.7685 35.8184 66.8861 35.9125 67.0272C35.4186 66.8625 34.9012 67.0507 34.666 67.8738C34.6425 67.9444 34.6425 68.0149 34.619 68.0855C34.3368 68.109 33.9605 68.109 33.8429 68.3912C33.7253 68.6499 33.7959 68.8851 33.9135 69.0733C33.8899 69.0968 33.8664 69.1203 33.8429 69.1438H33.8194C33.5372 69.2379 33.396 69.4966 33.349 69.7553L33.3255 69.7788C33.2314 69.9434 33.2079 70.0846 33.2314 70.2021C32.2907 70.4608 31.1148 71.0958 30.9501 72.0601C30.9266 72.2247 31.1853 72.2482 31.2088 72.0836C31.3735 71.1664 32.5023 70.6725 33.4431 70.4373C33.4901 70.4608 33.5607 70.4844 33.6077 70.5079C33.9134 70.7195 34.4073 70.649 34.7366 70.602C34.7366 70.602 34.7366 70.602 34.7601 70.602L34.7836 70.6255C34.7131 70.649 34.6425 70.6725 34.572 70.696C33.6077 71.0253 32.8081 71.6603 31.9614 72.2482C31.8203 72.3423 31.9849 72.554 32.1261 72.4599C32.8786 71.919 33.6077 71.3545 34.4779 71.0253C34.666 70.9547 34.8777 70.8842 35.0894 70.8371C35.0894 70.8371 35.0894 70.8371 35.1129 70.8371C34.2192 71.4016 33.4666 72.2482 33.2549 73.1419C33.2079 73.3066 33.4666 73.3301 33.5136 73.1655C33.7488 72.2718 34.5249 71.4486 35.4421 70.9312C35.5127 70.9547 35.6068 70.9547 35.6773 70.9783C35.6538 71.0958 35.6773 71.2134 35.7244 71.3075C35.0188 71.872 34.5955 72.6716 34.7131 73.7769C34.7366 73.9416 34.9953 73.918 34.9718 73.7299C34.8542 72.7421 35.254 72.0131 35.8655 71.5192C35.9831 71.6132 36.1242 71.6838 36.2653 71.7073C35.889 72.2012 35.7714 73.0714 35.8184 73.6123C35.842 73.7769 36.1007 73.7534 36.0771 73.5653C36.0066 73.0008 36.1712 72.0131 36.6651 71.6603C36.7121 71.8014 36.8297 71.9425 36.9473 72.0131C36.9003 72.1777 36.8768 72.3188 36.8532 72.4834C36.7592 73.0244 36.9003 73.5418 36.8768 74.0827C36.8768 74.2473 37.1355 74.2943 37.1355 74.1062C37.159 73.4242 37.0179 72.7892 37.1825 72.1307C37.1825 72.1071 37.1825 72.1071 37.1825 72.0836C37.2766 72.0836 37.3706 72.0836 37.4647 72.0366C37.5353 72.0131 37.5823 71.966 37.6058 71.919C37.6529 71.9895 37.6999 72.0366 37.7469 72.0836C37.7234 72.3423 37.6999 72.5775 37.6999 72.8362C37.6764 73.6358 37.841 74.4825 37.9351 75.2821C37.9586 75.4467 38.2173 75.4232 38.1938 75.2351C38.0762 74.3884 37.9116 73.5182 37.9586 72.6481C37.9586 72.5069 37.9821 72.3658 37.9821 72.2012C38.0527 72.2247 38.1232 72.2247 38.1938 72.2012C38.2643 72.1777 38.3349 72.1542 38.3819 72.0836C38.476 72.8362 38.4995 73.5888 38.3819 74.3414C38.3584 74.506 38.6171 74.5295 38.6406 74.3649C38.7347 73.7064 38.7347 73.0479 38.6642 72.3894C39.0169 73.4242 39.2051 74.506 39.3462 75.6114C39.3697 75.776 39.6284 75.7525 39.6049 75.5643C39.4403 74.4354 39.2521 73.3301 38.8993 72.2953C39.0404 72.3423 39.158 72.3658 39.2992 72.3894C39.3227 72.4599 39.3697 72.5305 39.4403 72.601C39.4638 72.6245 39.5108 72.6481 39.5343 72.6951C39.5579 72.7656 39.5579 72.8127 39.5814 72.8832C39.5108 73.1184 39.5814 73.4242 39.746 73.6829C39.8871 74.459 39.9577 75.2586 40.0753 76.0347C40.0988 76.1993 40.3575 76.1758 40.334 75.9877C40.2399 75.3527 40.1693 74.7177 40.0753 74.0827C40.2634 74.2708 40.4986 74.3649 40.6867 74.3414C40.8984 74.4355 40.9454 74.4119 40.9925 74.3884ZM36.4534 66.5333C36.3829 66.6744 36.3829 66.8625 36.4299 67.0272C36.4064 67.0272 36.3594 67.0507 36.3358 67.0507H36.3123C36.2653 67.0272 36.2418 67.0037 36.1947 66.9801C35.9595 66.7685 36.2182 66.6038 36.4534 66.5333ZM35.254 67.3329C35.4892 67.1212 35.7479 67.1448 35.9595 67.2859C35.842 67.427 35.7479 67.5916 35.7008 67.7798C35.3951 67.7798 35.1364 67.8738 34.9718 68.109C34.9247 68.109 34.8777 68.1325 34.8542 68.1325C34.9247 67.8268 35.0658 67.5446 35.254 67.3329ZM34.3368 68.9557C34.2662 68.9557 34.2192 68.9792 34.1722 69.0027C34.0546 68.8616 34.0075 68.697 34.1016 68.5088C34.1486 68.4148 34.3133 68.3912 34.4544 68.3912C34.3368 68.5323 34.2662 68.7205 34.3368 68.9557ZM36.3123 71.4486C36.2182 71.4486 36.1477 71.4016 36.1007 71.3781C36.2182 71.3075 36.3123 71.237 36.4299 71.1664C36.4064 71.2605 36.3594 71.3545 36.3123 71.4486ZM36.0066 67.8033C36.0536 67.6857 36.1242 67.5681 36.1947 67.474C36.2888 67.5916 36.3829 67.7092 36.4534 67.8503C36.4299 67.8738 36.4064 67.8973 36.3594 67.9209C36.2418 67.8738 36.1242 67.8268 36.0066 67.8033ZM37.1119 71.6368C37.1119 71.6603 37.0884 71.6838 37.0884 71.7308C37.0414 71.7073 37.0179 71.6838 37.0179 71.6838C36.7827 71.4957 36.8532 71.331 37.0179 71.1899C37.0884 71.2134 37.1355 71.2605 37.206 71.2605C37.2295 71.2605 37.2295 71.2605 37.2531 71.2605C37.206 71.3781 37.159 71.4957 37.1119 71.6368ZM37.3236 71.8014C37.3471 71.6838 37.3942 71.5662 37.4412 71.4251C37.4882 71.4957 37.5118 71.5662 37.5353 71.6368C37.5588 71.8249 37.4412 71.8484 37.3236 71.8014ZM36.6886 67.0037C36.6416 66.8625 36.6651 66.6274 36.7592 66.5098C37.0649 66.5803 37.3001 66.8861 37.2531 67.2153C37.2295 67.2153 37.206 67.2388 37.206 67.2388C37.0649 67.0977 36.9003 67.0037 36.6886 67.0037ZM37.841 67.1212C37.9821 66.9331 38.1232 66.745 38.3349 66.6979C38.429 66.6744 38.523 66.7214 38.5936 66.8155C38.3584 66.8861 38.1468 66.9801 37.9821 67.1448C37.9116 67.1212 37.8645 67.1212 37.841 67.1212Z" fill="#FBEF4D"/>
<path d="M40.5221 73.5887C38.6877 70.4607 33.984 69.473 33.937 69.473L34.4779 69.1202C35.1129 68.7674 38.9464 69.2613 40.334 72.3187C40.5456 72.7655 40.5221 73.5887 40.5221 73.5887Z" fill="#F7941D"/>
<path d="M45.8843 67.9445C45.9313 68.1091 45.8608 68.2737 45.6726 68.3443C45.508 68.4148 45.3198 68.3208 45.2728 68.1797C45.2258 68.015 45.2963 67.8504 45.4845 67.7799C45.6491 67.7093 45.8373 67.8034 45.8843 67.9445Z" fill="#201A0E"/>
<path d="M50.3057 68.1325C50.3528 68.2972 50.5174 68.3912 50.682 68.3442C50.8467 68.2972 50.9642 68.1325 50.9172 67.9679C50.8702 67.8033 50.7055 67.7092 50.5409 67.7562C50.3528 67.8033 50.2587 67.9679 50.3057 68.1325Z" fill="#201A0E"/>
<path d="M60.3245 74.1768C60.3716 74.2944 60.301 74.4591 60.1599 74.5061C60.0188 74.5531 59.8777 74.4826 59.8307 74.365C59.7836 74.2474 59.8542 74.0828 59.9953 74.0357C60.1364 73.9887 60.2775 74.0592 60.3245 74.1768Z" fill="#201A0E"/>
<path d="M64.7695 73.283C64.8166 73.4006 64.746 73.5653 64.6049 73.6123C64.4638 73.6593 64.3227 73.5888 64.2756 73.4712C64.2286 73.3536 64.2991 73.189 64.4403 73.1419C64.5814 73.0949 64.7225 73.1655 64.7695 73.283Z" fill="#201A0E"/>
<g opacity="0.34">
<path d="M37.3001 76.8344C37.2295 77.1401 36.8062 77.2812 36.3829 77.1636C35.9595 77.046 35.6773 76.7168 35.7479 76.4111C35.8184 76.1053 36.2418 75.9642 36.6651 76.0818C37.0884 76.2229 37.3706 76.5522 37.3001 76.8344Z" fill="#F15A29"/>
</g>
<g opacity="0.34">
<path d="M65.4515 74.5765C65.4751 74.8822 65.1693 75.1644 64.7695 75.188C64.3697 75.2115 64.0169 74.9998 63.9934 74.6941C63.9699 74.3883 64.2756 74.1061 64.6754 74.0826C65.0753 74.0591 65.428 74.2707 65.4515 74.5765Z" fill="#F15A29"/>
</g>
<path d="M47.7658 69.4967C47.8128 69.5672 47.9539 69.5672 47.9539 69.4732C47.9774 69.3791 47.9539 69.285 48.0009 69.1674C48.048 69.0734 48.1656 69.0263 48.2596 69.0028C48.4948 68.9322 48.73 69.0263 48.8711 69.2145C48.9417 69.285 49.0828 69.238 49.0357 69.1439C48.9181 68.8382 48.5183 68.6971 48.2126 68.7676C47.9304 68.8147 47.5541 69.1674 47.7658 69.4967Z" fill="#F7941D"/>
<g opacity="0.34">
<path d="M32.1966 75.87C32.1261 76.1758 31.7027 76.3169 31.2794 76.1993C30.8561 76.0817 30.5738 75.7524 30.6444 75.4467C30.715 75.141 31.1383 74.9998 31.5616 75.1174C32.0085 75.235 32.2907 75.5878 32.1966 75.87Z" fill="#F15A29"/>
</g>
<path d="M44.1674 69.9434C44.1439 69.8729 44.0969 69.8494 44.0263 69.8494H44.0028C43.8852 69.8729 43.8852 70.0375 44.0028 70.061H44.0263C44.0969 70.0845 44.1439 70.0375 44.1674 69.9905C44.191 69.9905 44.191 69.9434 44.1674 69.9434Z" fill="#F7941D"/>
<path d="M35.301 19.4963C36.0536 19.3787 37.0884 19.2847 38.5701 19.2847C40.0517 19.2847 41.1336 19.5669 41.8391 20.1548C42.5212 20.6958 42.968 21.5895 42.968 22.6243C42.968 23.6826 42.6152 24.5528 41.9802 25.1643C41.1571 25.9404 39.9341 26.2931 38.4995 26.2696C38.1938 26.2696 37.888 26.2461 37.6764 26.2226V30.0561H35.2775L35.301 19.4963ZM37.6764 24.3646C37.888 24.4117 38.1468 24.4352 38.476 24.4352C39.7695 24.4352 40.5456 23.8002 40.5691 22.6948C40.5691 21.7071 39.8871 21.1191 38.6877 21.1191C38.1938 21.1191 37.8645 21.1661 37.6764 21.2132V24.3646Z" fill="white"/>
<path d="M45.2963 19.5432C46.0724 19.4256 47.2248 19.3315 48.5183 19.3315C50.0941 19.3315 51.2229 19.5667 51.9755 20.1782C52.6105 20.6956 52.9633 21.4247 52.9633 22.4124C52.9633 23.7765 51.9991 24.7172 51.0583 25.0465V25.0935C51.8109 25.3993 52.2107 26.1048 52.4694 27.0926C52.7987 28.292 53.1279 29.7031 53.3396 30.1029H50.8702C50.7055 29.7972 50.4468 28.927 50.1411 27.61C49.8589 26.2695 49.3885 25.9167 48.4243 25.8932H47.6952L47.6717 30.1029H45.2728L45.2963 19.5432ZM47.6952 24.1528H48.6359C49.8354 24.1528 50.5644 23.5648 50.5644 22.6241C50.5644 21.6363 49.9059 21.1425 48.8006 21.1189C48.2126 21.1189 47.8833 21.166 47.6952 21.1895V24.1528Z" fill="white"/>
<path d="M65.2164 24.694C65.2164 28.1982 63.0762 30.3148 59.9483 30.3148C56.7733 30.3148 54.9153 27.8925 54.9388 24.8586C54.9388 21.6601 57.0085 19.2612 60.1599 19.2612C63.4525 19.2847 65.2399 21.7307 65.2164 24.694ZM57.5023 24.8116C57.5023 26.9047 58.4666 28.3863 60.0894 28.3863C61.7121 28.3863 62.6764 26.8341 62.6764 24.7645C62.6764 22.836 61.7592 21.1897 60.0894 21.1897C58.4666 21.1897 57.5023 22.7419 57.5023 24.8116Z" fill="white"/>
</svg>
